<svg width="98" height="99" viewBox="0 0 98 99" fill="none" xmlns="http://www.w3.org/2000/svg">
<path fill-rule="evenodd" clip-rule="evenodd" d="M23.8643 15.1048C22.9661 16.2946 21.0285 20.342 20.0951 22.399L20.2133 22.4477L8.76576 49.1636C3.98223 60.3273 8.10132 70.203 19.2453 74.7792L46.7714 86.0825C58.0208 90.702 67.9734 86.7709 72.7251 75.6814L84.2443 48.7982L84.2455 48.7987C84.2523 48.7818 84.2592 48.7647 84.2661 48.7475L84.3418 48.5707L84.3375 48.5689C85.1999 46.4059 86.6957 42.4261 86.9122 41.0508C88.3817 32.9641 84.6098 25.8018 76.7773 21.7427L45.0068 8.66822C36.5112 5.96634 28.7438 8.34236 23.8643 15.1048Z" fill="url(#paint0_linear_134_2212)"/>
<g opacity="0.5" filter="url(#filter0_f_134_2212)">
<path d="M62.5738 27.6582L44.7577 20.5788C38.2953 18.011 32.8733 20.5633 30.0298 27.4985L20.3993 50.9872C17.5092 58.0361 19.6497 63.4877 26.112 66.0556L43.9281 73.1349C50.4946 75.7441 55.7731 73.2405 58.6632 66.1916L68.2937 42.7029C71.1371 35.7677 69.1403 30.2674 62.5738 27.6582Z" fill="#EB6F0A"/>
</g>
<g filter="url(#filter1_b_134_2212)">
<mask id="path-3-outside-1_134_2212" maskUnits="userSpaceOnUse" x="26.3167" y="26.4553" width="72" height="73" fill="black">
<rect fill="white" x="26.3167" y="26.4553" width="72" height="73"/>
<path fill-rule="evenodd" clip-rule="evenodd" d="M27.9301 41.3278C27.5706 42.757 27.3793 47.197 27.3296 49.4341H96.9864C96.9366 47.1932 96.7454 42.7189 96.3897 41.3278C94.5539 33.3626 88.2434 28.2214 79.4087 27.4553H44.9111C35.9999 28.1832 29.7659 33.2902 27.9301 41.3278ZM27.3167 49.4348V78.4489C27.3167 90.4921 35.0423 98 47.1661 98H77.1124C89.351 98 97.0002 90.6445 97.0002 78.6814V49.4348H27.3167ZM43.2267 66.0285C43.3032 67.7778 44.7566 69.1537 46.5159 69.0736C48.2369 69.0012 49.6138 67.553 49.5373 65.7961C49.499 64.0849 48.0839 62.7472 46.3629 62.7472C44.6036 62.8272 43.2267 64.2754 43.2267 66.0285ZM58.9459 66.0285C59.0223 67.7778 60.4757 69.1537 62.235 69.0736C63.956 69.0012 65.3329 67.553 65.2564 65.7961C65.2181 64.0849 63.803 62.7472 62.082 62.7472C60.3227 62.8272 58.9459 64.2754 58.9459 66.0285ZM74.6648 79.8591C74.6648 81.6122 76.0799 83.0605 77.8392 83.0986C79.6367 83.0986 81.0901 81.6503 81.0901 79.8591C81.0901 78.0717 79.6367 76.6235 77.8392 76.6235H77.8009C76.0416 76.6616 74.6266 78.106 74.6648 79.8591ZM62.235 82.9081C60.4757 82.9881 59.0223 81.6123 58.9459 79.8592C58.9459 78.1061 60.3227 76.6617 62.082 76.5816C63.803 76.5816 65.2181 77.9193 65.2564 79.6343C65.3329 81.3875 63.956 82.8357 62.235 82.9081ZM46.4776 82.9081C44.7183 82.9881 43.265 81.6123 43.1885 79.8592C43.1885 78.1061 44.5653 76.6617 46.3246 76.5816C48.0457 76.5816 49.4608 77.9193 49.499 79.6343C49.5755 81.3875 48.1987 82.8357 46.4776 82.9081ZM77.8388 62.789C76.0795 62.8271 74.7026 64.2373 74.7026 65.9904V66.0285C74.7409 67.7778 76.1942 69.1117 77.9535 69.0736C79.6746 69.0393 81.0514 67.5911 81.0132 65.8379C80.9367 64.1572 79.5598 62.789 77.8388 62.789Z"/>
</mask>
<path fill-rule="evenodd" clip-rule="evenodd" d="M27.9301 41.3278C27.5706 42.757 27.3793 47.197 27.3296 49.4341H96.9864C96.9366 47.1932 96.7454 42.7189 96.3897 41.3278C94.5539 33.3626 88.2434 28.2214 79.4087 27.4553H44.9111C35.9999 28.1832 29.7659 33.2902 27.9301 41.3278ZM27.3167 49.4348V78.4489C27.3167 90.4921 35.0423 98 47.1661 98H77.1124C89.351 98 97.0002 90.6445 97.0002 78.6814V49.4348H27.3167ZM43.2267 66.0285C43.3032 67.7778 44.7566 69.1537 46.5159 69.0736C48.2369 69.0012 49.6138 67.553 49.5373 65.7961C49.499 64.0849 48.0839 62.7472 46.3629 62.7472C44.6036 62.8272 43.2267 64.2754 43.2267 66.0285ZM58.9459 66.0285C59.0223 67.7778 60.4757 69.1537 62.235 69.0736C63.956 69.0012 65.3329 67.553 65.2564 65.7961C65.2181 64.0849 63.803 62.7472 62.082 62.7472C60.3227 62.8272 58.9459 64.2754 58.9459 66.0285ZM74.6648 79.8591C74.6648 81.6122 76.0799 83.0605 77.8392 83.0986C79.6367 83.0986 81.0901 81.6503 81.0901 79.8591C81.0901 78.0717 79.6367 76.6235 77.8392 76.6235H77.8009C76.0416 76.6616 74.6266 78.106 74.6648 79.8591ZM62.235 82.9081C60.4757 82.9881 59.0223 81.6123 58.9459 79.8592C58.9459 78.1061 60.3227 76.6617 62.082 76.5816C63.803 76.5816 65.2181 77.9193 65.2564 79.6343C65.3329 81.3875 63.956 82.8357 62.235 82.9081ZM46.4776 82.9081C44.7183 82.9881 43.265 81.6123 43.1885 79.8592C43.1885 78.1061 44.5653 76.6617 46.3246 76.5816C48.0457 76.5816 49.4608 77.9193 49.499 79.6343C49.5755 81.3875 48.1987 82.8357 46.4776 82.9081ZM77.8388 62.789C76.0795 62.8271 74.7026 64.2373 74.7026 65.9904V66.0285C74.7409 67.7778 76.1942 69.1117 77.9535 69.0736C79.6746 69.0393 81.0514 67.5911 81.0132 65.8379C80.9367 64.1572 79.5598 62.789 77.8388 62.789Z" fill="#FFCBB9" fill-opacity="0.35"/>
<path d="M27.3296 49.4341L26.3299 49.4119C26.3239 49.6809 26.4266 49.9409 26.6147 50.1333C26.8028 50.3257 27.0605 50.4341 27.3296 50.4341V49.4341ZM27.9301 41.3278L28.8999 41.5718C28.9016 41.5647 28.9033 41.5576 28.905 41.5505L27.9301 41.3278ZM96.9864 49.4341V50.4341C97.2554 50.4341 97.5131 50.3257 97.7013 50.1333C97.8894 49.941 97.9921 49.6809 97.9861 49.4119L96.9864 49.4341ZM96.3897 41.3278L95.4153 41.5524C95.4171 41.5602 95.4189 41.5679 95.4209 41.5756L96.3897 41.3278ZM79.4087 27.4553L79.4951 26.4591C79.4663 26.4566 79.4375 26.4553 79.4087 26.4553V27.4553ZM44.9111 27.4553V26.4553C44.884 26.4553 44.8568 26.4564 44.8297 26.4586L44.9111 27.4553ZM27.3167 49.4348V48.4348C26.7644 48.4348 26.3167 48.8825 26.3167 49.4348H27.3167ZM97.0002 49.4348H98.0002C98.0002 48.8825 97.5525 48.4348 97.0002 48.4348V49.4348ZM46.5159 69.0736L46.4738 68.0745L46.4704 68.0747L46.5159 69.0736ZM43.2267 66.0285H42.2267C42.2267 66.0431 42.2271 66.0577 42.2277 66.0722L43.2267 66.0285ZM49.5373 65.7961L48.5375 65.8184C48.5377 65.8255 48.5379 65.8325 48.5382 65.8396L49.5373 65.7961ZM46.3629 62.7472V61.7472C46.3477 61.7472 46.3326 61.7475 46.3174 61.7482L46.3629 62.7472ZM62.235 69.0736L62.1929 68.0745L62.1895 68.0747L62.235 69.0736ZM58.9459 66.0285H57.9459C57.9459 66.0431 57.9462 66.0577 57.9468 66.0722L58.9459 66.0285ZM65.2564 65.7961L64.2566 65.8184C64.2568 65.8255 64.257 65.8325 64.2573 65.8396L65.2564 65.7961ZM62.082 62.7472V61.7472C62.0668 61.7472 62.0517 61.7475 62.0365 61.7482L62.082 62.7472ZM77.8392 83.0986L77.8175 84.0983C77.8247 84.0985 77.832 84.0986 77.8392 84.0986V83.0986ZM74.6648 79.8591H75.6648C75.6648 79.8518 75.6647 79.8446 75.6646 79.8373L74.6648 79.8591ZM77.8009 76.6235V75.6235C77.7937 75.6235 77.7865 75.6235 77.7793 75.6237L77.8009 76.6235ZM58.9459 79.8592H57.9459C57.9459 79.8737 57.9462 79.8883 57.9468 79.9028L58.9459 79.8592ZM62.235 82.9081L62.1929 81.909L62.1895 81.9091L62.235 82.9081ZM62.082 76.5816V75.5816C62.0668 75.5816 62.0517 75.582 62.0365 75.5826L62.082 76.5816ZM65.2564 79.6343L64.2566 79.6566C64.2568 79.6637 64.257 79.6708 64.2573 79.6779L65.2564 79.6343ZM43.1885 79.8592H42.1885C42.1885 79.8737 42.1888 79.8883 42.1894 79.9028L43.1885 79.8592ZM46.4776 82.9081L46.4356 81.909L46.4322 81.9091L46.4776 82.9081ZM46.3246 76.5816V75.5816C46.3095 75.5816 46.2943 75.582 46.2792 75.5826L46.3246 76.5816ZM49.499 79.6343L48.4992 79.6566C48.4994 79.6637 48.4996 79.6708 48.5 79.6779L49.499 79.6343ZM77.8388 62.789V61.789C77.8316 61.789 77.8243 61.7891 77.8171 61.7893L77.8388 62.789ZM74.7026 66.0285H73.7026C73.7026 66.0358 73.7027 66.0431 73.7029 66.0504L74.7026 66.0285ZM77.9535 69.0736L77.9336 68.0738L77.9319 68.0738L77.9535 69.0736ZM81.0132 65.8379L82.0129 65.8161C82.0128 65.8082 82.0125 65.8004 82.0121 65.7925L81.0132 65.8379ZM28.3294 49.4563C28.354 48.3484 28.4137 46.693 28.5117 45.141C28.612 43.551 28.7468 42.1804 28.8999 41.5718L26.9603 41.0839C26.7539 41.9044 26.6132 43.4684 26.5157 45.015C26.4157 46.5995 26.355 48.2827 26.3299 49.4119L28.3294 49.4563ZM96.9864 48.4341H27.3296V50.4341H96.9864V48.4341ZM95.4209 41.5756C95.5709 42.1621 95.7047 43.5279 95.8047 45.1248C95.9022 46.6813 95.962 48.3463 95.9866 49.4563L97.9861 49.4119C97.961 48.2809 97.9003 46.5884 97.8008 44.9998C97.7039 43.4515 97.5643 41.8846 97.3586 41.0801L95.4209 41.5756ZM79.3223 28.4516C87.7766 29.1846 93.688 34.0581 95.4153 41.5524L97.3642 41.1032C95.4199 32.667 88.7102 27.2581 79.4951 26.4591L79.3223 28.4516ZM44.9111 28.4553H79.4087V26.4553H44.9111V28.4553ZM28.905 41.5505C30.6333 33.9832 36.4682 29.1483 44.9925 28.452L44.8297 26.4586C35.5316 27.2182 28.8984 32.5972 26.9552 41.1052L28.905 41.5505ZM28.3167 78.4489V49.4348H26.3167V78.4489H28.3167ZM47.1661 97C41.3119 97 36.6198 95.191 33.3953 92.0269C30.1731 88.8649 28.3167 84.252 28.3167 78.4489H26.3167C26.3167 84.6889 28.323 89.8516 31.9945 93.4544C35.6638 97.055 40.8964 99 47.1661 99V97ZM77.1124 97H47.1661V99H77.1124V97ZM96.0002 78.6814C96.0002 84.4449 94.1628 88.9964 90.95 92.1086C87.7334 95.2244 83.0318 97 77.1124 97V99C83.4317 99 88.674 97.0978 92.3415 93.5451C96.0129 89.9888 98.0002 84.881 98.0002 78.6814H96.0002ZM96.0002 49.4348V78.6814H98.0002V49.4348H96.0002ZM27.3167 50.4348H97.0002V48.4348H27.3167V50.4348ZM46.4704 68.0747C45.2814 68.1288 44.2789 67.1997 44.2258 65.9848L42.2277 66.0722C42.3276 68.356 44.2318 70.1786 46.5613 70.0726L46.4704 68.0747ZM48.5382 65.8396C48.5901 67.0312 47.6556 68.0248 46.4738 68.0745L46.5579 70.0727C48.8183 69.9776 50.6374 68.0748 50.5363 65.7526L48.5382 65.8396ZM46.3629 63.7472C47.5618 63.7472 48.5119 64.6718 48.5375 65.8184L50.537 65.7737C50.4861 63.4979 48.6061 61.7472 46.3629 61.7472V63.7472ZM44.2267 66.0285C44.2267 64.8087 45.1844 63.8018 46.4083 63.7461L46.3174 61.7482C44.0228 61.8526 42.2267 63.7421 42.2267 66.0285H44.2267ZM62.1895 68.0747C61.0005 68.1288 59.998 67.1997 59.9449 65.9848L57.9468 66.0722C58.0467 68.356 59.9509 70.1786 62.2804 70.0726L62.1895 68.0747ZM64.2573 65.8396C64.3092 67.0312 63.3747 68.0248 62.1929 68.0745L62.277 70.0727C64.5374 69.9776 66.3565 68.0748 66.2554 65.7526L64.2573 65.8396ZM62.082 63.7472C63.2809 63.7472 64.231 64.6718 64.2566 65.8184L66.2561 65.7737C66.2053 63.4979 64.3252 61.7472 62.082 61.7472V63.7472ZM59.9459 66.0285C59.9459 64.8087 60.9035 63.8018 62.1274 63.7461L62.0365 61.7482C59.7419 61.8526 57.9459 63.7421 57.9459 66.0285H59.9459ZM77.8608 82.0988C76.6448 82.0725 75.6648 81.0679 75.6648 79.8591H73.6648C73.6648 82.1565 75.515 84.0485 77.8175 84.0983L77.8608 82.0988ZM80.0901 79.8591C80.0901 81.0947 79.0878 82.0986 77.8392 82.0986V84.0986C80.1857 84.0986 82.0901 82.2059 82.0901 79.8591H80.0901ZM77.8392 77.6235C79.0885 77.6235 80.0901 78.6281 80.0901 79.8591H82.0901C82.0901 77.5153 80.1849 75.6235 77.8392 75.6235V77.6235ZM77.8009 77.6235H77.8392V75.6235H77.8009V77.6235ZM75.6646 79.8373C75.6387 78.651 76.6008 77.6497 77.8226 77.6232L77.7793 75.6237C75.4825 75.6735 73.6144 77.561 73.665 79.8809L75.6646 79.8373ZM57.9468 79.9028C58.0466 82.1897 59.9501 84.0131 62.2804 83.9071L62.1895 81.9091C61.0012 81.9632 59.9981 81.035 59.9449 79.8156L57.9468 79.9028ZM62.0365 75.5826C59.7434 75.687 57.9459 77.5713 57.9459 79.8592H59.9459C59.9459 78.6409 60.902 77.6363 62.1274 77.5806L62.0365 75.5826ZM66.2561 79.612C66.2053 77.3331 64.326 75.5816 62.082 75.5816V77.5816C63.2801 77.5816 64.231 78.5055 64.2566 79.6566L66.2561 79.612ZM62.277 83.9072C64.5366 83.8121 66.3566 81.91 66.2554 79.5907L64.2573 79.6779C64.3091 80.8649 63.3755 81.8592 62.1929 81.909L62.277 83.9072ZM42.1894 79.9028C42.2892 82.1897 44.1928 84.0131 46.523 83.9071L46.4322 81.9091C45.2438 81.9632 44.2407 81.035 44.1875 79.8156L42.1894 79.9028ZM46.2792 75.5826C43.986 75.687 42.1885 77.5713 42.1885 79.8592H44.1885C44.1885 78.6409 45.1446 77.6363 46.3701 77.5806L46.2792 75.5826ZM50.4988 79.612C50.4479 77.3331 48.5686 75.5816 46.3246 75.5816V77.5816C47.5227 77.5816 48.4736 78.5055 48.4992 79.6566L50.4988 79.612ZM46.5196 83.9072C48.7792 83.8121 50.5992 81.91 50.4981 79.5907L48.5 79.6779C48.5517 80.8649 47.6181 81.8592 46.4356 81.909L46.5196 83.9072ZM75.7026 65.9904C75.7026 64.7812 76.6448 63.8151 77.8604 63.7888L77.8171 61.7893C75.5142 61.8392 73.7026 63.6934 73.7026 65.9904H75.7026ZM75.7026 66.0285V65.9904H73.7026V66.0285H75.7026ZM77.9319 68.0738C76.698 68.1006 75.728 67.1776 75.7024 66.0066L73.7029 66.0504C73.7538 68.378 75.6904 70.1229 77.9752 70.0734L77.9319 68.0738ZM80.0134 65.8598C80.0398 67.0718 79.09 68.0507 77.9336 68.0738L77.9734 70.0734C80.2592 70.0278 82.063 68.1103 82.0129 65.8161L80.0134 65.8598ZM77.8388 63.789C79.0109 63.789 79.9614 64.7224 80.0142 65.8834L82.0121 65.7925C81.912 63.5921 80.1087 61.789 77.8388 61.789V63.789Z" fill="url(#paint1_linear_134_2212)" mask="url(#path-3-outside-1_134_2212)"/>
</g>
<g filter="url(#filter2_bd_134_2212)">
<mask id="path-5-inside-2_134_2212" fill="white">
<path fill-rule="evenodd" clip-rule="evenodd" d="M50.7985 36.3354C50.7985 38.0161 49.5364 39.2699 47.8536 39.2699C46.1708 39.2699 44.9087 38.0161 44.9087 36.3354V24.7152C44.9087 23.0345 46.1708 21.7769 47.8536 21.7769C49.5364 21.7769 50.7985 23.0345 50.7985 24.7152V36.3354ZM79.4074 36.3354C79.4074 38.0161 78.1071 39.2699 76.4625 39.2699C74.7797 39.2699 73.5176 38.0161 73.5176 36.3354V24.7152C73.5176 23.0345 74.7797 21.7769 76.4625 21.7769C78.1071 21.7769 79.4074 23.0345 79.4074 24.7152V36.3354Z"/>
</mask>
<path fill-rule="evenodd" clip-rule="evenodd" d="M50.7985 36.3354C50.7985 38.0161 49.5364 39.2699 47.8536 39.2699C46.1708 39.2699 44.9087 38.0161 44.9087 36.3354V24.7152C44.9087 23.0345 46.1708 21.7769 47.8536 21.7769C49.5364 21.7769 50.7985 23.0345 50.7985 24.7152V36.3354ZM79.4074 36.3354C79.4074 38.0161 78.1071 39.2699 76.4625 39.2699C74.7797 39.2699 73.5176 38.0161 73.5176 36.3354V24.7152C73.5176 23.0345 74.7797 21.7769 76.4625 21.7769C78.1071 21.7769 79.4074 23.0345 79.4074 24.7152V36.3354Z" fill="url(#paint2_linear_134_2212)"/>
<path d="M47.8536 39.6699C49.7557 39.6699 51.1985 38.2387 51.1985 36.3354H50.3985C50.3985 37.7935 49.3172 38.8699 47.8536 38.8699V39.6699ZM44.5087 36.3354C44.5087 38.2387 45.9516 39.6699 47.8536 39.6699V38.8699C46.39 38.8699 45.3087 37.7935 45.3087 36.3354H44.5087ZM44.5087 24.7152V36.3354H45.3087V24.7152H44.5087ZM47.8536 21.3769C45.9509 21.3769 44.5087 22.8126 44.5087 24.7152H45.3087C45.3087 23.2564 46.3907 22.1769 47.8536 22.1769V21.3769ZM51.1985 24.7152C51.1985 22.8126 49.7563 21.3769 47.8536 21.3769V22.1769C49.3165 22.1769 50.3985 23.2564 50.3985 24.7152H51.1985ZM51.1985 36.3354V24.7152H50.3985V36.3354H51.1985ZM76.4625 39.6699C78.3229 39.6699 79.8074 38.2421 79.8074 36.3354H79.0074C79.0074 37.7901 77.8913 38.8699 76.4625 38.8699V39.6699ZM73.1176 36.3354C73.1176 38.2387 74.5605 39.6699 76.4625 39.6699V38.8699C74.9989 38.8699 73.9176 37.7935 73.9176 36.3354H73.1176ZM73.1176 24.7152V36.3354H73.9176V24.7152H73.1176ZM76.4625 21.3769C74.5598 21.3769 73.1176 22.8126 73.1176 24.7152H73.9176C73.9176 23.2564 74.9996 22.1769 76.4625 22.1769V21.3769ZM79.8074 24.7152C79.8074 22.8092 78.3236 21.3769 76.4625 21.3769V22.1769C77.8906 22.1769 79.0074 23.2598 79.0074 24.7152H79.8074ZM79.8074 36.3354V24.7152H79.0074V36.3354H79.8074Z" fill="url(#paint3_linear_134_2212)" mask="url(#path-5-inside-2_134_2212)"/>
</g>
<g filter="url(#filter3_bd_134_2212)">
<mask id="path-7-inside-3_134_2212" fill="white">
<path fill-rule="evenodd" clip-rule="evenodd" d="M43.262 66.0631C43.3385 67.8124 44.7918 69.1883 46.5511 69.1082C48.2722 69.0358 49.649 67.5876 49.5725 65.8306C49.5343 64.1194 48.1192 62.7817 46.3982 62.7817C44.6389 62.8618 43.262 64.31 43.262 66.0631ZM58.9803 66.0631C59.0568 67.8124 60.5101 69.1883 62.2694 69.1082C63.9905 69.0358 65.3673 67.5876 65.2908 65.8306C65.2526 64.1194 63.8375 62.7817 62.1164 62.7817C60.3571 62.8618 58.9803 64.31 58.9803 66.0631ZM74.699 79.8936C74.699 81.6467 76.1141 83.095 77.8734 83.1331C79.6709 83.1331 81.1243 81.6848 81.1243 79.8936C81.1243 78.1062 79.6709 76.658 77.8734 76.658H77.8351C76.0758 76.6961 74.6608 78.1405 74.699 79.8936ZM62.2694 82.9427C60.5101 83.0228 59.0568 81.647 58.9803 79.8938C58.9803 78.1407 60.3571 76.6963 62.1164 76.6163C63.8375 76.6163 65.2526 77.954 65.2908 79.669C65.3673 81.4221 63.9905 82.8703 62.2694 82.9427ZM46.512 82.9427C44.7527 83.0228 43.2994 81.647 43.2229 79.8938C43.2229 78.1407 44.5997 76.6963 46.359 76.6163C48.0801 76.6163 49.4952 77.954 49.5334 79.669C49.6099 81.4221 48.2331 82.8703 46.512 82.9427ZM77.8734 62.8238C76.1141 62.8619 74.7373 64.272 74.7373 66.0251V66.0632C74.7756 67.8125 76.2289 69.1464 77.9882 69.1083C79.7092 69.074 81.0861 67.6258 81.0478 65.8727C80.9713 64.1919 79.5945 62.8238 77.8734 62.8238Z"/>
</mask>
<path fill-rule="evenodd" clip-rule="evenodd" d="M43.262 66.0631C43.3385 67.8124 44.7918 69.1883 46.5511 69.1082C48.2722 69.0358 49.649 67.5876 49.5725 65.8306C49.5343 64.1194 48.1192 62.7817 46.3982 62.7817C44.6389 62.8618 43.262 64.31 43.262 66.0631ZM58.9803 66.0631C59.0568 67.8124 60.5101 69.1883 62.2694 69.1082C63.9905 69.0358 65.3673 67.5876 65.2908 65.8306C65.2526 64.1194 63.8375 62.7817 62.1164 62.7817C60.3571 62.8618 58.9803 64.31 58.9803 66.0631ZM74.699 79.8936C74.699 81.6467 76.1141 83.095 77.8734 83.1331C79.6709 83.1331 81.1243 81.6848 81.1243 79.8936C81.1243 78.1062 79.6709 76.658 77.8734 76.658H77.8351C76.0758 76.6961 74.6608 78.1405 74.699 79.8936ZM62.2694 82.9427C60.5101 83.0228 59.0568 81.647 58.9803 79.8938C58.9803 78.1407 60.3571 76.6963 62.1164 76.6163C63.8375 76.6163 65.2526 77.954 65.2908 79.669C65.3673 81.4221 63.9905 82.8703 62.2694 82.9427ZM46.512 82.9427C44.7527 83.0228 43.2994 81.647 43.2229 79.8938C43.2229 78.1407 44.5997 76.6963 46.359 76.6163C48.0801 76.6163 49.4952 77.954 49.5334 79.669C49.6099 81.4221 48.2331 82.8703 46.512 82.9427ZM77.8734 62.8238C76.1141 62.8619 74.7373 64.272 74.7373 66.0251V66.0632C74.7756 67.8125 76.2289 69.1464 77.9882 69.1083C79.7092 69.074 81.0861 67.6258 81.0478 65.8727C80.9713 64.1919 79.5945 62.8238 77.8734 62.8238Z" fill="url(#paint4_linear_134_2212)"/>
<path d="M46.5511 69.1082L46.5343 68.7086L46.533 68.7086L46.5511 69.1082ZM43.262 66.0631H42.862V66.0719L42.8624 66.0806L43.262 66.0631ZM49.5725 65.8306L49.1726 65.8396L49.1729 65.848L49.5725 65.8306ZM46.3982 62.7817V62.3817H46.3891L46.38 62.3822L46.3982 62.7817ZM62.2694 69.1082L62.2526 68.7086L62.2512 68.7086L62.2694 69.1082ZM58.9803 66.0631H58.5803V66.0719L58.5807 66.0806L58.9803 66.0631ZM65.2908 65.8306L64.8908 65.8396L64.8912 65.848L65.2908 65.8306ZM62.1164 62.7817V62.3817H62.1073L62.0983 62.3822L62.1164 62.7817ZM77.8734 83.1331L77.8647 83.5331H77.8734V83.1331ZM74.699 79.8936H75.0991L75.0989 79.8849L74.699 79.8936ZM77.8351 76.658V76.2579L77.8265 76.2581L77.8351 76.658ZM58.9803 79.8938H58.5803V79.9026L58.5807 79.9113L58.9803 79.8938ZM62.2694 82.9427L62.2526 82.5431L62.2512 82.5431L62.2694 82.9427ZM62.1164 76.6163V76.2163H62.1073L62.0983 76.2167L62.1164 76.6163ZM65.2908 79.669L64.8908 79.6779L64.8912 79.6864L65.2908 79.669ZM43.2229 79.8938H42.8229V79.9026L42.8233 79.9113L43.2229 79.8938ZM46.512 82.9427L46.4952 82.5431L46.4938 82.5431L46.512 82.9427ZM46.359 76.6163V76.2163H46.3499L46.3409 76.2167L46.359 76.6163ZM49.5334 79.669L49.1334 79.6779L49.1338 79.6864L49.5334 79.669ZM77.8734 62.8238V62.4237L77.8648 62.4238L77.8734 62.8238ZM74.7373 66.0632H74.3372L74.3374 66.072L74.7373 66.0632ZM77.9882 69.1083L77.9802 68.7084L77.9795 68.7084L77.9882 69.1083ZM81.0478 65.8727L81.4478 65.8639L81.4474 65.8545L81.0478 65.8727ZM46.533 68.7086C45.0018 68.7783 43.7288 67.5812 43.6616 66.0456L42.8624 66.0806C42.9482 68.0437 44.5819 69.5982 46.5693 69.5078L46.533 68.7086ZM49.1729 65.848C49.2396 67.3789 48.0397 68.6452 46.5343 68.7086L46.568 69.5079C48.5047 69.4264 50.0585 67.7963 49.9722 65.8132L49.1729 65.848ZM46.3982 63.1817C47.9104 63.1817 49.1395 64.3542 49.1726 65.8396L49.9724 65.8217C49.9292 63.8847 48.3281 62.3817 46.3982 62.3817V63.1817ZM43.662 66.0631C43.662 64.5233 44.8712 63.2516 46.4163 63.1813L46.38 62.3822C44.4065 62.4719 42.862 64.0967 42.862 66.0631H43.662ZM62.2512 68.7086C60.72 68.7783 59.4471 67.5812 59.3799 66.0456L58.5807 66.0806C58.6665 68.0437 60.3002 69.5982 62.2876 69.5078L62.2512 68.7086ZM64.8912 65.848C64.9578 67.3789 63.7579 68.6452 62.2526 68.7086L62.2862 69.5079C64.223 69.4264 65.7768 67.7963 65.6904 65.8132L64.8912 65.848ZM62.1164 63.1817C63.6286 63.1817 64.8577 64.3542 64.8909 65.8396L65.6907 65.8217C65.6474 63.8847 64.0463 62.3817 62.1164 62.3817V63.1817ZM59.3803 66.0631C59.3803 64.5233 60.5895 63.2516 62.1346 63.1813L62.0983 62.3822C60.1248 62.4719 58.5803 64.0967 58.5803 66.0631H59.3803ZM77.882 82.7332C76.3401 82.6998 75.099 81.429 75.099 79.8936H74.299C74.299 81.8644 75.8881 83.4902 77.8647 83.533L77.882 82.7332ZM80.7243 79.8936C80.7243 81.4626 79.4513 82.7331 77.8734 82.7331V83.5331C79.8905 83.5331 81.5243 81.9071 81.5243 79.8936H80.7243ZM77.8734 77.058C79.4516 77.058 80.7243 78.3287 80.7243 79.8936H81.5243C81.5243 77.8836 79.8902 76.258 77.8734 76.258V77.058ZM77.8351 77.058H77.8734V76.258H77.8351V77.058ZM75.0989 79.8849C75.0656 78.3585 76.2995 77.0913 77.8438 77.0579L77.8265 76.2581C75.8522 76.3008 74.2559 77.9225 74.2991 79.9023L75.0989 79.8849ZM58.5807 79.9113C58.6665 81.8779 60.2999 83.4327 62.2876 83.3423L62.2512 82.5431C60.7203 82.6128 59.4471 81.416 59.3799 79.8764L58.5807 79.9113ZM62.0983 76.2167C60.1254 76.3064 58.5803 77.9268 58.5803 79.8938H59.3803C59.3803 78.3546 60.5889 77.0862 62.1346 77.0159L62.0983 76.2167ZM65.6907 79.6601C65.6474 77.7195 64.0467 76.2163 62.1164 76.2163V77.0163C63.6283 77.0163 64.8577 78.1884 64.8909 79.6779L65.6907 79.6601ZM62.2862 83.3424C64.2227 83.2609 65.7768 81.6311 65.6904 79.6515L64.8912 79.6864C64.9578 81.2131 63.7583 82.4797 62.2526 82.5431L62.2862 83.3424ZM42.8233 79.9113C42.9091 81.8779 44.5425 83.4327 46.5302 83.3423L46.4938 82.5431C44.9629 82.6128 43.6897 81.416 43.6225 79.8764L42.8233 79.9113ZM46.3409 76.2167C44.368 76.3064 42.8229 77.9268 42.8229 79.8938H43.6229C43.6229 78.3546 44.8315 77.0862 46.3772 77.0159L46.3409 76.2167ZM49.9333 79.6601C49.8901 77.7195 48.2893 76.2163 46.359 76.2163V77.0163C47.8709 77.0163 49.1003 78.1884 49.1335 79.6779L49.9333 79.6601ZM46.5288 83.3424C48.4653 83.2609 50.0194 81.6311 49.933 79.6515L49.1338 79.6864C49.2004 81.2131 48.0009 82.4797 46.4952 82.5431L46.5288 83.3424ZM75.1373 66.0251C75.1373 64.4895 76.3403 63.2571 77.8821 63.2237L77.8648 62.4238C75.888 62.4667 74.3373 64.0544 74.3373 66.0251H75.1373ZM75.1373 66.0632V66.0251H74.3373V66.0632H75.1373ZM77.9795 68.7084C76.4304 68.742 75.1704 67.5724 75.1372 66.0545L74.3374 66.072C74.3807 68.0526 76.0274 69.5509 77.9968 69.5082L77.9795 68.7084ZM80.6479 65.8814C80.6814 67.4181 79.4754 68.6786 77.9802 68.7084L77.9961 69.5082C79.9431 69.4694 81.4907 67.8335 81.4477 65.8639L80.6479 65.8814ZM77.8734 63.2238C79.3749 63.2238 80.5812 64.418 80.6482 65.8908L81.4474 65.8545C81.3615 63.9659 79.814 62.4238 77.8734 62.4238V63.2238Z" fill="url(#paint5_linear_134_2212)" mask="url(#path-7-inside-3_134_2212)"/>
</g>
<g opacity="0.5" filter="url(#filter4_b_134_2212)">
<path d="M30.872 49.7212C30.872 51.3402 32.1457 52.6203 33.8529 52.6203L89.0382 52.6203C90.7454 52.6203 92.0229 51.3402 92.0229 49.7212C92.0229 48.0645 90.7454 46.822 89.0382 46.822L33.8529 46.822C32.1457 46.822 30.872 48.0645 30.872 49.7212Z" fill="url(#paint6_linear_134_2212)" fill-opacity="0.5"/>
</g>
<defs>
<filter id="filter0_f_134_2212" x="0.136719" y="0.600952" width="88.4167" height="92.5422" filterUnits="userSpaceOnUse" color-interpolation-filters="sRGB">
<feFlood flood-opacity="0" result="BackgroundImageFix"/>
<feBlend mode="normal" in="SourceGraphic" in2="BackgroundImageFix" result="shape"/>
<feGaussianBlur stdDeviation="9.5" result="effect1_foregroundBlur_134_2212"/>
</filter>
<filter id="filter1_b_134_2212" x="2.31665" y="2.45532" width="119.683" height="120.545" filterUnits="userSpaceOnUse" color-interpolation-filters="sRGB">
<feFlood flood-opacity="0" result="BackgroundImageFix"/>
<feGaussianBlur in="BackgroundImage" stdDeviation="12"/>
<feComposite in2="SourceAlpha" operator="in" result="effect1_backgroundBlur_134_2212"/>
<feBlend mode="normal" in="SourceGraphic" in2="effect1_backgroundBlur_134_2212" result="shape"/>
</filter>
<filter id="filter2_bd_134_2212" x="29.9087" y="6.77686" width="64.4985" height="47.493" filterUnits="userSpaceOnUse" color-interpolation-filters="sRGB">
<feFlood flood-opacity="0" result="BackgroundImageFix"/>
<feGaussianBlur in="BackgroundImage" stdDeviation="7.5"/>
<feComposite in2="SourceAlpha" operator="in" result="effect1_backgroundBlur_134_2212"/>
<feColorMatrix in="SourceAlpha" type="matrix" values="0 0 0 0 0 0 0 0 0 0 0 0 0 0 0 0 0 0 127 0" result="hardAlpha"/>
<feOffset dx="5" dy="5"/>
<feGaussianBlur stdDeviation="5"/>
<feColorMatrix type="matrix" values="0 0 0 0 1 0 0 0 0 0.537255 0 0 0 0 0.160784 0 0 0 0.2 0"/>
<feBlend mode="normal" in2="effect1_backgroundBlur_134_2212" result="effect2_dropShadow_134_2212"/>
<feBlend mode="normal" in="SourceGraphic" in2="effect2_dropShadow_134_2212" result="shape"/>
</filter>
<filter id="filter3_bd_134_2212" x="28.2229" y="47.7817" width="67.9011" height="50.3513" filterUnits="userSpaceOnUse" color-interpolation-filters="sRGB">
<feFlood flood-opacity="0" result="BackgroundImageFix"/>
<feGaussianBlur in="BackgroundImage" stdDeviation="7.5"/>
<feComposite in2="SourceAlpha" operator="in" result="effect1_backgroundBlur_134_2212"/>
<feColorMatrix in="SourceAlpha" type="matrix" values="0 0 0 0 0 0 0 0 0 0 0 0 0 0 0 0 0 0 127 0" result="hardAlpha"/>
<feOffset dx="5" dy="5"/>
<feGaussianBlur stdDeviation="5"/>
<feColorMatrix type="matrix" values="0 0 0 0 1 0 0 0 0 0.52549 0 0 0 0 0.137255 0 0 0 0.5 0"/>
<feBlend mode="normal" in2="effect1_backgroundBlur_134_2212" result="effect2_dropShadow_134_2212"/>
<feBlend mode="normal" in="SourceGraphic" in2="effect2_dropShadow_134_2212" result="shape"/>
</filter>
<filter id="filter4_b_134_2212" x="15.8721" y="31.822" width="91.1509" height="35.7982" filterUnits="userSpaceOnUse" color-interpolation-filters="sRGB">
<feFlood flood-opacity="0" result="BackgroundImageFix"/>
<feGaussianBlur in="BackgroundImage" stdDeviation="7.5"/>
<feComposite in2="SourceAlpha" operator="in" result="effect1_backgroundBlur_134_2212"/>
<feBlend mode="normal" in="SourceGraphic" in2="effect1_backgroundBlur_134_2212" result="shape"/>
</filter>
<linearGradient id="paint0_linear_134_2212" x1="60.873" y1="15.1749" x2="33.7802" y2="80.7815" gradientUnits="userSpaceOnUse">
<stop stop-color="#FFB37F"/>
<stop offset="1" stop-color="#FF7B0D"/>
</linearGradient>
<linearGradient id="paint1_linear_134_2212" x1="38.4091" y1="35.6739" x2="83.5225" y2="90.8658" gradientUnits="userSpaceOnUse">
<stop stop-color="white" stop-opacity="0.25"/>
<stop offset="1" stop-color="white" stop-opacity="0"/>
</linearGradient>
<linearGradient id="paint2_linear_134_2212" x1="77.3275" y1="36.5553" x2="78.3317" y2="23.4139" gradientUnits="userSpaceOnUse">
<stop stop-color="white"/>
<stop offset="1" stop-color="white" stop-opacity="0.2"/>
</linearGradient>
<linearGradient id="paint3_linear_134_2212" x1="76.3794" y1="24.4219" x2="90.3518" y2="29.7453" gradientUnits="userSpaceOnUse">
<stop stop-color="white" stop-opacity="0.25"/>
<stop offset="1" stop-color="white" stop-opacity="0"/>
</linearGradient>
<linearGradient id="paint4_linear_134_2212" x1="78.4371" y1="66.4568" x2="14.5416" y2="62.1804" gradientUnits="userSpaceOnUse">
<stop stop-color="white"/>
<stop offset="1" stop-color="white" stop-opacity="0.2"/>
</linearGradient>
<linearGradient id="paint5_linear_134_2212" x1="49.2562" y1="65.1527" x2="58.9493" y2="87.5106" gradientUnits="userSpaceOnUse">
<stop stop-color="white" stop-opacity="0.25"/>
<stop offset="1" stop-color="white" stop-opacity="0"/>
</linearGradient>
<linearGradient id="paint6_linear_134_2212" x1="47.3768" y1="49.6394" x2="45.2459" y2="42.8595" gradientUnits="userSpaceOnUse">
<stop stop-color="white"/>
<stop offset="1" stop-color="white" stop-opacity="0.2"/>
</linearGradient>
</defs>
</svg>
