<svg width="96" height="96" viewBox="0 0 96 96" fill="none" xmlns="http://www.w3.org/2000/svg">
<path d="M61.8253 5.79058C57.4858 3.53294 52.4254 3.14377 47.8147 4.69333L17.3995 12.843C12.5992 13.8152 8.4113 16.6824 5.78201 20.8073C3.52434 25.1468 3.13514 30.2072 4.69342 34.8504L12.8431 65.2653C13.8152 70.0657 16.6824 74.2535 20.8074 76.8827C25.1469 79.1404 30.2073 79.5295 34.8506 77.9713L65.2657 69.8215C70.0335 68.8581 74.2539 65.9822 76.8832 61.8572C79.1083 57.5265 79.5301 52.4574 77.9718 47.8141L69.8222 17.3993C68.8175 12.6077 65.9502 8.41983 61.8253 5.79058Z" fill="url(#paint0_linear_134_2259)"/>
<g opacity="0.5" filter="url(#filter0_f_134_2259)">
<path d="M46.47 14.3622L23.533 20.7601C15.2132 23.0808 11.564 28.7155 13.6113 36.0552L20.5453 60.9141C22.6262 68.3741 28.6383 71.2102 36.9581 68.8895L59.895 62.4915C68.3489 60.1334 71.8882 54.6331 69.8073 47.1731L62.8733 22.3143C60.826 14.9745 54.9239 12.004 46.47 14.3622Z" fill="#30AD31"/>
</g>
<g filter="url(#filter1_b_134_2259)">
<mask id="path-3-outside-1_134_2259" maskUnits="userSpaceOnUse" x="23.2559" y="20.5605" width="76" height="76" fill="black">
<rect fill="white" x="23.2559" y="20.5605" width="76" height="76"/>
<path d="M92.4529 26.692C88.5319 23.1009 83.3284 21.2687 78.0515 21.5985H43.8254C38.5119 21.2687 33.3084 23.1009 29.3874 26.692C25.7962 30.613 23.964 35.8165 24.2938 41.1299V75.3558C23.964 80.6692 25.7962 85.8727 29.3874 89.7937C33.3084 93.3848 38.5119 95.217 43.8254 94.8872H78.0515C83.3284 95.217 88.5686 93.3848 92.4895 89.7937C96.0441 85.8727 97.9129 80.6692 97.5832 75.3558V41.1299C97.8763 35.8165 96.0441 30.613 92.4529 26.692Z"/>
</mask>
<path d="M92.4529 26.692C88.5319 23.1009 83.3284 21.2687 78.0515 21.5985H43.8254C38.5119 21.2687 33.3084 23.1009 29.3874 26.692C25.7962 30.613 23.964 35.8165 24.2938 41.1299V75.3558C23.964 80.6692 25.7962 85.8727 29.3874 89.7937C33.3084 93.3848 38.5119 95.217 43.8254 94.8872H78.0515C83.3284 95.217 88.5686 93.3848 92.4895 89.7937C96.0441 85.8727 97.9129 80.6692 97.5832 75.3558V41.1299C97.8763 35.8165 96.0441 30.613 92.4529 26.692Z" fill="#72DC60" fill-opacity="0.35"/>
<path d="M91.7775 27.4295C92.1848 27.8025 92.8173 27.7747 93.1903 27.3674C93.5634 26.9602 93.5356 26.3276 93.1283 25.9546L91.7775 27.4295ZM78.0515 21.5985V22.5985C78.0723 22.5985 78.0931 22.5978 78.1139 22.5965L78.0515 21.5985ZM43.8254 21.5985L43.7634 22.5965C43.7841 22.5978 43.8047 22.5985 43.8254 22.5985V21.5985ZM29.3874 26.692L28.712 25.9546C28.6904 25.9743 28.6697 25.995 28.6499 26.0166L29.3874 26.692ZM24.2938 41.1299H25.2938C25.2938 41.1093 25.2931 41.0886 25.2919 41.068L24.2938 41.1299ZM24.2938 75.3558L25.2919 75.4177C25.2931 75.3971 25.2938 75.3764 25.2938 75.3558H24.2938ZM29.3874 89.7937L28.6499 90.4691C28.6697 90.4907 28.6904 90.5114 28.712 90.5311L29.3874 89.7937ZM43.8254 94.8872V93.8872C43.8047 93.8872 43.7841 93.8879 43.7634 93.8892L43.8254 94.8872ZM78.0515 94.8872L78.1139 93.8892C78.0931 93.8879 78.0723 93.8872 78.0515 93.8872V94.8872ZM92.4895 89.7937L93.1649 90.5311C93.1878 90.5102 93.2096 90.4883 93.2304 90.4653L92.4895 89.7937ZM97.5832 75.3558H96.5832C96.5832 75.3764 96.5838 75.3971 96.5851 75.4177L97.5832 75.3558ZM97.5832 41.1299L96.5847 41.0748C96.5837 41.0932 96.5832 41.1115 96.5832 41.1299H97.5832ZM93.1903 26.0166C92.8173 25.6093 92.1848 25.5816 91.7775 25.9546C91.3702 26.3276 91.3424 26.9602 91.7155 27.3674L93.1903 26.0166ZM93.1283 25.9546C89.007 22.18 83.5372 20.2537 77.9892 20.6004L78.1139 22.5965C83.1196 22.2837 88.0568 24.0218 91.7775 27.4295L93.1283 25.9546ZM78.0515 20.5985H43.8254V22.5985H78.0515V20.5985ZM43.8873 20.6004C38.304 20.2538 32.834 22.1793 28.712 25.9546L30.0628 27.4295C33.7827 24.0224 38.7198 22.2835 43.7634 22.5965L43.8873 20.6004ZM28.6499 26.0166C24.8746 30.1386 22.9491 35.6086 23.2957 41.1919L25.2919 41.068C24.9788 36.0244 26.7178 31.0874 30.1248 27.3674L28.6499 26.0166ZM23.2938 41.1299V75.3558H25.2938V41.1299H23.2938ZM23.2957 75.2938C22.9491 80.8771 24.8746 86.3471 28.6499 90.4691L30.1248 89.1183C26.7178 85.3983 24.9788 80.4613 25.2919 75.4177L23.2957 75.2938ZM28.712 90.5311C32.834 94.3064 38.304 96.2319 43.8873 95.8853L43.7634 93.8892C38.7198 94.2022 33.7827 92.4633 30.0628 89.0562L28.712 90.5311ZM43.8254 95.8872H78.0515V93.8872H43.8254V95.8872ZM77.9892 95.8853C83.5355 96.2319 89.0424 94.3069 93.1649 90.5311L91.8141 89.0562C88.0947 92.4628 83.1213 94.2021 78.1139 93.8892L77.9892 95.8853ZM93.2304 90.4653C96.9627 86.3482 98.928 80.8814 98.5812 75.2938L96.5851 75.4177C96.8979 80.457 95.1254 85.3972 91.7487 89.122L93.2304 90.4653ZM98.5832 75.3558V41.1299H96.5832V75.3558H98.5832ZM98.5816 41.185C98.8894 35.6066 96.9658 30.1387 93.1903 26.0166L91.7155 27.3674C95.1224 31.0872 96.8632 36.0264 96.5847 41.0748L98.5816 41.185Z" fill="url(#paint1_linear_134_2259)" mask="url(#path-3-outside-1_134_2259)"/>
</g>
<g filter="url(#filter2_bd_134_2259)">
<mask id="path-5-inside-2_134_2259" fill="white">
<path d="M81.8605 51.282L57.1987 76.017C55.9161 77.2629 54.2304 77.9591 52.4715 77.9591H43.86C43.3836 77.9591 42.9439 77.7759 42.6141 77.4461C42.2843 77.1163 42.1377 76.6766 42.1377 76.2002L42.3576 67.5155C42.3942 65.7932 43.0905 64.1808 44.2997 62.9716L61.7792 45.4922C62.0724 45.199 62.5854 45.199 62.8786 45.4922L68.9982 51.5752C69.4013 51.9783 69.9877 52.2348 70.6106 52.2348C71.9665 52.2348 73.0292 51.1354 73.0292 49.8162C73.0292 49.1566 72.7727 48.5703 72.3696 48.1306C72.2596 47.984 66.4331 42.1942 66.4331 42.1942C66.0667 41.8278 66.0667 41.2048 66.4331 40.8384L68.8883 38.3465C71.1603 36.0746 74.8248 36.0746 77.0967 38.3465L81.8605 43.1103C84.0959 45.3456 84.0959 49.0101 81.8605 51.282Z"/>
</mask>
<path d="M81.8605 51.282L57.1987 76.017C55.9161 77.2629 54.2304 77.9591 52.4715 77.9591H43.86C43.3836 77.9591 42.9439 77.7759 42.6141 77.4461C42.2843 77.1163 42.1377 76.6766 42.1377 76.2002L42.3576 67.5155C42.3942 65.7932 43.0905 64.1808 44.2997 62.9716L61.7792 45.4922C62.0724 45.199 62.5854 45.199 62.8786 45.4922L68.9982 51.5752C69.4013 51.9783 69.9877 52.2348 70.6106 52.2348C71.9665 52.2348 73.0292 51.1354 73.0292 49.8162C73.0292 49.1566 72.7727 48.5703 72.3696 48.1306C72.2596 47.984 66.4331 42.1942 66.4331 42.1942C66.0667 41.8278 66.0667 41.2048 66.4331 40.8384L68.8883 38.3465C71.1603 36.0746 74.8248 36.0746 77.0967 38.3465L81.8605 43.1103C84.0959 45.3456 84.0959 49.0101 81.8605 51.282Z" fill="url(#paint2_linear_134_2259)"/>
<path d="M57.1987 76.017L57.338 76.1604L57.3403 76.1582L57.1987 76.017ZM42.1377 76.2002L41.9377 76.1951V76.2002H42.1377ZM42.3576 67.5155L42.5575 67.5205L42.5575 67.5197L42.3576 67.5155ZM44.2997 62.9716L44.4412 63.113L44.2997 62.9716ZM61.7792 45.4922L61.6378 45.3508L61.7792 45.4922ZM62.8786 45.4922L62.7372 45.6336L62.7376 45.634L62.8786 45.4922ZM68.9982 51.5752L69.1397 51.4337L69.1392 51.4333L68.9982 51.5752ZM72.3696 48.1306L72.2096 48.2506L72.2155 48.2585L72.2221 48.2657L72.3696 48.1306ZM66.4331 42.1942L66.2917 42.3356L66.2921 42.3361L66.4331 42.1942ZM66.4331 40.8384L66.5745 40.9798L66.5756 40.9787L66.4331 40.8384ZM68.8883 38.3465L68.7469 38.2051L68.7458 38.2062L68.8883 38.3465ZM77.0967 38.3465L76.9553 38.488L77.0967 38.3465ZM81.8605 43.1103L82.002 42.9689L81.8605 43.1103ZM81.7189 51.1408L57.057 75.8758L57.3403 76.1582L82.0022 51.4232L81.7189 51.1408ZM57.0593 75.8735C55.8131 77.0841 54.177 77.7591 52.4715 77.7591V78.1591C54.2839 78.1591 56.0191 77.4416 57.338 76.1604L57.0593 75.8735ZM52.4715 77.7591H43.86V78.1591H52.4715V77.7591ZM43.86 77.7591C43.4364 77.7591 43.0476 77.5968 42.7555 77.3047L42.4727 77.5875C42.8402 77.955 43.3309 78.1591 43.86 78.1591V77.7591ZM42.7555 77.3047C42.4707 77.0199 42.3377 76.6352 42.3377 76.2002H41.9377C41.9377 76.7179 42.0978 77.2127 42.4727 77.5875L42.7555 77.3047ZM42.3376 76.2053L42.5575 67.5205L42.1576 67.5104L41.9378 76.1951L42.3376 76.2053ZM42.5575 67.5197C42.5931 65.8494 43.268 64.2861 44.4412 63.113L44.1583 62.8301C42.9129 64.0756 42.1954 65.7369 42.1576 67.5112L42.5575 67.5197ZM44.4412 63.113L61.9207 45.6336L61.6378 45.3508L44.1583 62.8301L44.4412 63.113ZM61.9207 45.6336C62.1357 45.4186 62.5221 45.4186 62.7372 45.6336L63.02 45.3508C62.6487 44.9795 62.0091 44.9795 61.6378 45.3508L61.9207 45.6336ZM62.7376 45.634L68.8573 51.717L69.1392 51.4333L63.0196 45.3504L62.7376 45.634ZM68.8568 51.7166C69.297 52.1568 69.934 52.4348 70.6106 52.4348V52.0348C70.0413 52.0348 69.5057 51.7998 69.1397 51.4337L68.8568 51.7166ZM70.6106 52.4348C72.0789 52.4348 73.2292 51.2439 73.2292 49.8162H72.8292C72.8292 51.027 71.854 52.0348 70.6106 52.0348V52.4348ZM73.2292 49.8162C73.2292 49.1031 72.9515 48.4694 72.517 47.9954L72.2221 48.2657C72.5938 48.6712 72.8292 49.2101 72.8292 49.8162H73.2292ZM72.5296 48.0106C72.5131 47.9886 72.4715 47.9453 72.4287 47.9009C72.3792 47.8497 72.3104 47.7794 72.2254 47.693C72.0551 47.5203 71.8182 47.2818 71.5372 47C70.9753 46.4364 70.2365 45.6987 69.5013 44.9658C68.7661 44.2328 68.0343 43.5045 67.4863 42.9594C67.2123 42.6868 66.9842 42.46 66.8247 42.3014C66.7449 42.2221 66.6823 42.1599 66.6396 42.1174C66.6182 42.0962 66.6018 42.0799 66.5908 42.069C66.5853 42.0635 66.5811 42.0593 66.5783 42.0565C66.5769 42.0551 66.5759 42.0541 66.5752 42.0534C66.5748 42.053 66.5745 42.0528 66.5744 42.0526C66.5743 42.0525 66.5742 42.0524 66.5742 42.0524C66.5741 42.0524 66.5741 42.0523 66.4331 42.1942C66.2921 42.3361 66.2922 42.3361 66.2922 42.3361C66.2923 42.3362 66.2923 42.3362 66.2924 42.3363C66.2926 42.3365 66.2929 42.3368 66.2932 42.3371C66.2939 42.3378 66.295 42.3389 66.2964 42.3403C66.2992 42.343 66.3033 42.3472 66.3089 42.3527C66.3199 42.3636 66.3362 42.3799 66.3576 42.4011C66.4003 42.4435 66.4629 42.5058 66.5427 42.5851C66.7022 42.7437 66.9302 42.9704 67.2042 43.2429C67.7521 43.788 68.4838 44.5163 69.2189 45.2491C69.9541 45.9819 70.6925 46.7192 71.254 47.2824C71.5347 47.564 71.771 47.8019 71.9405 47.9738C72.0252 48.0598 72.0929 48.129 72.1409 48.1787C72.1954 48.2352 72.2123 48.2542 72.2096 48.2506L72.5296 48.0106ZM66.5745 42.0528C66.2862 41.7644 66.2862 41.2681 66.5745 40.9798L66.2917 40.6969C65.8471 41.1415 65.8471 41.8911 66.2917 42.3356L66.5745 42.0528ZM66.5756 40.9787L69.0308 38.4869L68.7458 38.2062L66.2907 40.698L66.5756 40.9787ZM69.0297 38.488C71.2236 36.2941 74.7614 36.2941 76.9553 38.488L77.2381 38.2051C74.8881 35.8551 71.097 35.8551 68.7469 38.2051L69.0297 38.488ZM76.9553 38.488L81.7191 43.2517L82.002 42.9689L77.2381 38.2051L76.9553 38.488ZM81.7191 43.2517C83.8757 45.4083 83.8773 48.947 81.718 51.1417L82.0031 51.4223C84.3144 49.0731 84.316 45.2829 82.002 42.9689L81.7191 43.2517Z" fill="url(#paint3_linear_134_2259)" fill-opacity="0.5" mask="url(#path-5-inside-2_134_2259)"/>
</g>
<defs>
<filter id="filter0_f_134_2259" x="-4.94678" y="-4.43121" width="93.3364" height="92.1102" filterUnits="userSpaceOnUse" color-interpolation-filters="sRGB">
<feFlood flood-opacity="0" result="BackgroundImageFix"/>
<feBlend mode="normal" in="SourceGraphic" in2="BackgroundImageFix" result="shape"/>
<feGaussianBlur stdDeviation="9" result="effect1_foregroundBlur_134_2259"/>
</filter>
<filter id="filter1_b_134_2259" x="-0.744141" y="-3.43945" width="123.365" height="123.365" filterUnits="userSpaceOnUse" color-interpolation-filters="sRGB">
<feFlood flood-opacity="0" result="BackgroundImageFix"/>
<feGaussianBlur in="BackgroundImage" stdDeviation="12"/>
<feComposite in2="SourceAlpha" operator="in" result="effect1_backgroundBlur_134_2259"/>
<feBlend mode="normal" in="SourceGraphic" in2="effect1_backgroundBlur_134_2259" result="shape"/>
</filter>
<filter id="filter2_bd_134_2259" x="27.1377" y="21.6426" width="71.3994" height="71.3165" filterUnits="userSpaceOnUse" color-interpolation-filters="sRGB">
<feFlood flood-opacity="0" result="BackgroundImageFix"/>
<feGaussianBlur in="BackgroundImage" stdDeviation="7.5"/>
<feComposite in2="SourceAlpha" operator="in" result="effect1_backgroundBlur_134_2259"/>
<feColorMatrix in="SourceAlpha" type="matrix" values="0 0 0 0 0 0 0 0 0 0 0 0 0 0 0 0 0 0 127 0" result="hardAlpha"/>
<feOffset dx="5" dy="5"/>
<feGaussianBlur stdDeviation="5"/>
<feColorMatrix type="matrix" values="0 0 0 0 0.454902 0 0 0 0 0.870588 0 0 0 0 0.376471 0 0 0 0.5 0"/>
<feBlend mode="normal" in2="effect1_backgroundBlur_134_2259" result="effect2_dropShadow_134_2259"/>
<feBlend mode="normal" in="SourceGraphic" in2="effect2_dropShadow_134_2259" result="shape"/>
</filter>
<linearGradient id="paint0_linear_134_2259" x1="65.1956" y1="7.64651e-06" x2="33.6324" y2="66.0803" gradientUnits="userSpaceOnUse">
<stop stop-color="#9BF763"/>
<stop offset="1" stop-color="#26AB5B"/>
</linearGradient>
<linearGradient id="paint1_linear_134_2259" x1="35.9343" y1="30.1076" x2="82.7331" y2="88.0691" gradientUnits="userSpaceOnUse">
<stop stop-color="white" stop-opacity="0.25"/>
<stop offset="1" stop-color="white" stop-opacity="0"/>
</linearGradient>
<linearGradient id="paint2_linear_134_2259" x1="80.6018" y1="44.1035" x2="34.4871" y2="45.6101" gradientUnits="userSpaceOnUse">
<stop stop-color="white"/>
<stop offset="1" stop-color="white" stop-opacity="0.2"/>
</linearGradient>
<linearGradient id="paint3_linear_134_2259" x1="46.5973" y1="50.5023" x2="81.7511" y2="50.6967" gradientUnits="userSpaceOnUse">
<stop stop-color="white"/>
<stop offset="1" stop-color="white" stop-opacity="0"/>
</linearGradient>
</defs>
</svg>
