<svg width="21" height="20" viewBox="0 0 21 20" fill="none" xmlns="http://www.w3.org/2000/svg">
<g clip-path="url(#clip0_79_3796)">
<path d="M8.94311 19.7278C4.29151 18.8954 0.766113 14.8803 0.766113 10.0327C0.766113 4.64675 5.17291 0.239746 10.5589 0.239746C15.9449 0.239746 20.3519 4.64675 20.3519 10.0327C20.3519 14.8803 16.8265 18.8954 12.1747 19.7278L11.6361 19.2872H9.48191L8.94311 19.7278Z" fill="url(#paint0_linear_79_3796)"/>
<path d="M14.3781 12.7746L14.8189 10.0326H12.2237V8.12304C12.2237 7.33964 12.5177 6.75204 13.6927 6.75204H14.9657V4.25484C14.2803 4.15684 13.4969 4.05884 12.8113 4.05884C10.5589 4.05884 8.99214 5.43004 8.99214 7.87824V10.0326H6.54395V12.7746H8.99194V19.6786C9.53054 19.7766 10.0691 19.8256 10.6079 19.8256C11.1463 19.8256 11.6849 19.7766 12.2235 19.6786V12.7746H14.3781Z" fill="white"/>
</g>
<defs>
<linearGradient id="paint0_linear_79_3796" x1="10.5594" y1="19.1408" x2="10.5594" y2="0.228583" gradientUnits="userSpaceOnUse">
<stop stop-color="#0062E0"/>
<stop offset="1" stop-color="#19AFFF"/>
</linearGradient>
<clipPath id="clip0_79_3796">
<rect width="20" height="20" fill="white" transform="translate(0.5)"/>
</clipPath>
</defs>
</svg>
