<svg width="96" height="90" viewBox="0 0 96 90" fill="none" xmlns="http://www.w3.org/2000/svg">
<path d="M83.9314 12.4008L56.7455 5.15722C46.8845 2.52979 39.596 6.7415 36.945 16.5795L27.9666 49.8995C25.2722 59.8988 29.5013 67.041 39.3623 69.6685L66.5482 76.9121C76.5681 79.5818 83.6597 75.4559 86.3541 65.4567L95.3325 32.1366C97.9835 22.2987 93.9513 15.0706 83.9314 12.4008Z" fill="url(#paint0_linear_133_2182)"/>
<g opacity="0.5" filter="url(#filter0_f_133_2182)">
<path d="M76.8838 21.4543L58.294 16.5012C51.551 14.7045 46.5671 17.5845 44.7544 24.3117L38.6149 47.0961C36.7725 53.9336 39.6643 58.8175 46.4073 60.6141L64.9971 65.5673C71.8487 67.3929 76.698 64.5716 78.5404 57.7341L84.6799 34.9498C86.4926 28.2225 83.7354 23.28 76.8838 21.4543Z" fill="#F86652"/>
</g>
<g filter="url(#filter1_b_133_2182)">
<mask id="path-3-outside-1_133_2182" maskUnits="userSpaceOnUse" x="5.96046e-08" y="11.1588" width="80" height="79" fill="black">
<rect fill="white" x="5.96046e-08" y="11.1588" width="80" height="79"/>
<path fill-rule="evenodd" clip-rule="evenodd" d="M1 50.3792L1 66.059C0.999252 67.7606 1.13712 69.4594 1.41226 71.1389C1.84497 74.1069 2.87298 76.9587 4.43549 79.5257C5.14727 80.7646 6.01291 81.91 7.01211 82.935C11.6046 87.1115 17.6935 89.2853 23.9147 88.9694H55.315C61.5263 89.2877 67.6054 87.1129 72.1833 82.935C73.1946 81.912 74.0718 80.7665 74.7942 79.5257C76.3661 76.9569 77.4164 74.1078 77.8862 71.1389C78.1329 69.4566 78.2591 67.759 78.2641 66.059V45.8761C78.3815 42.0118 77.8117 38.1571 76.5807 34.4891C75.9551 32.7044 74.9997 31.0511 73.7636 29.6139C73.375 29.16 72.9499 28.7381 72.4925 28.3524C68.521 25.2464 63.5171 23.7372 58.4757 24.1249H46.8923C44.1503 24.0716 41.5641 22.8289 39.821 20.7172L36.0763 15.5692C34.3112 13.3753 31.6217 12.1164 28.7931 12.1599H20.754C6.32501 12.1599 1 20.5809 1 34.8998V45.8407C0.999999 45.852 0.999999 45.8633 1 45.8747V50.3779C0.999999 50.3783 0.999999 50.3788 1 50.3792Z"/>
</mask>
<path fill-rule="evenodd" clip-rule="evenodd" d="M1 50.3792L1 66.059C0.999252 67.7606 1.13712 69.4594 1.41226 71.1389C1.84497 74.1069 2.87298 76.9587 4.43549 79.5257C5.14727 80.7646 6.01291 81.91 7.01211 82.935C11.6046 87.1115 17.6935 89.2853 23.9147 88.9694H55.315C61.5263 89.2877 67.6054 87.1129 72.1833 82.935C73.1946 81.912 74.0718 80.7665 74.7942 79.5257C76.3661 76.9569 77.4164 74.1078 77.8862 71.1389C78.1329 69.4566 78.2591 67.759 78.2641 66.059V45.8761C78.3815 42.0118 77.8117 38.1571 76.5807 34.4891C75.9551 32.7044 74.9997 31.0511 73.7636 29.6139C73.375 29.16 72.9499 28.7381 72.4925 28.3524C68.521 25.2464 63.5171 23.7372 58.4757 24.1249H46.8923C44.1503 24.0716 41.5641 22.8289 39.821 20.7172L36.0763 15.5692C34.3112 13.3753 31.6217 12.1164 28.7931 12.1599H20.754C6.32501 12.1599 1 20.5809 1 34.8998V45.8407C0.999999 45.852 0.999999 45.8633 1 45.8747V50.3779C0.999999 50.3783 0.999999 50.3788 1 50.3792Z" fill="#FFAC95" fill-opacity="0.4"/>
<path d="M1 50.3792H2.00007L1.99994 50.3677L1 50.3792ZM1 66.059L2 66.0595V66.059H1ZM1.41226 71.1389L2.4018 70.9946C2.40095 70.9888 2.40006 70.983 2.39911 70.9772L1.41226 71.1389ZM4.43549 79.5257L5.30257 79.0275C5.29837 79.0202 5.29407 79.0129 5.28969 79.0057L4.43549 79.5257ZM7.01211 82.935L6.29605 83.633C6.31004 83.6473 6.32446 83.6613 6.3393 83.6748L7.01211 82.935ZM23.9147 88.9694V87.9694C23.8978 87.9694 23.8809 87.9698 23.864 87.9707L23.9147 88.9694ZM55.315 88.9694L55.3662 87.9707C55.3492 87.9698 55.3321 87.9694 55.315 87.9694V88.9694ZM72.1833 82.935L72.8574 83.6736C72.8701 83.662 72.8824 83.6502 72.8945 83.638L72.1833 82.935ZM74.7942 79.5257L73.9413 79.0037C73.9375 79.01 73.9337 79.0162 73.9301 79.0225L74.7942 79.5257ZM77.8862 71.1389L78.874 71.2951L78.8756 71.2839L77.8862 71.1389ZM78.2641 66.059L79.2641 66.0619V66.059H78.2641ZM78.2641 45.8761L77.2646 45.8457C77.2642 45.8559 77.2641 45.866 77.2641 45.8761H78.2641ZM76.5807 34.4891L77.5288 34.1709L77.5244 34.1583L76.5807 34.4891ZM73.7636 29.6139L73.004 30.2642L73.0054 30.2659L73.7636 29.6139ZM72.4925 28.3524L73.1371 27.5879C73.1277 27.58 73.1182 27.5723 73.1085 27.5647L72.4925 28.3524ZM58.4757 24.1249V25.1249C58.5013 25.1249 58.5269 25.1239 58.5524 25.122L58.4757 24.1249ZM46.8923 24.1249L46.8729 25.1247C46.8793 25.1249 46.8858 25.1249 46.8923 25.1249V24.1249ZM39.821 20.7172L39.0123 21.3055C39.0243 21.322 39.0368 21.3381 39.0498 21.3538L39.821 20.7172ZM36.0763 15.5692L36.885 14.981C36.8755 14.9679 36.8656 14.955 36.8555 14.9424L36.0763 15.5692ZM28.7931 12.1599V13.1599C28.7982 13.1599 28.8034 13.1599 28.8085 13.1598L28.7931 12.1599ZM1 45.8407L2 45.8411V45.8407H1ZM1 45.8747H2L2 45.8743L1 45.8747ZM1 50.3779L2 50.3885V50.3779H1ZM3.75509e-06 50.3792V66.059H2V50.3792H3.75509e-06ZM3.8147e-06 66.0586C-0.000772059 67.8144 0.141498 69.5675 0.425417 71.3005L2.39911 70.9772C2.13274 69.3513 1.99928 67.7067 2 66.0595L3.8147e-06 66.0586ZM0.422723 71.2831C0.874869 74.3845 1.949 77.364 3.58129 80.0456L5.28969 79.0057C3.79695 76.5534 2.81508 73.8293 2.4018 70.9946L0.422723 71.2831ZM3.56841 80.0238C4.32203 81.3356 5.23843 82.5481 6.29605 83.633L7.72816 82.2369C6.78738 81.2718 5.97252 80.1936 5.30257 79.0275L3.56841 80.0238ZM6.3393 83.6748C11.1297 88.0313 17.4793 90.2975 23.9654 89.9681L23.864 87.9707C17.9078 88.2732 12.0796 86.1918 7.68491 82.1951L6.3393 83.6748ZM23.9147 89.9694H55.315V87.9694H23.9147V89.9694ZM55.2639 89.9681C61.7408 90.3 68.0814 88.0323 72.8574 83.6736L71.5092 82.1963C67.1294 86.1935 61.3117 88.2754 55.3662 87.9707L55.2639 89.9681ZM72.8945 83.638C73.9648 82.5552 74.8935 81.3426 75.6584 80.0288L73.9301 79.0225C73.2501 80.1904 72.4243 81.2687 71.4721 82.2319L72.8945 83.638ZM75.6472 80.0476C77.2874 77.3671 78.3836 74.3938 78.8739 71.2951L76.8985 70.9826C76.4493 73.8217 75.4448 76.5466 73.9413 79.0037L75.6472 80.0476ZM78.8756 71.2839C79.1292 69.5546 79.259 67.8095 79.2641 66.0619L77.2641 66.0561C77.2593 67.7085 77.1365 69.3586 76.8968 70.9938L78.8756 71.2839ZM79.2641 66.059V45.8761H77.2641V66.059H79.2641ZM79.2636 45.9065C79.3847 41.9237 78.7973 37.9511 77.5287 34.171L75.6327 34.8073C76.826 38.3632 77.3784 42.0998 77.2646 45.8457L79.2636 45.9065ZM77.5244 34.1583C76.8574 32.2556 75.839 30.4934 74.5218 28.9618L73.0054 30.2659C74.1604 31.6088 75.0528 33.1533 75.637 34.8199L77.5244 34.1583ZM74.5232 28.9635C74.0994 28.4684 73.6358 28.0084 73.1371 27.5879L71.8479 29.1169C72.2639 29.4678 72.6506 29.8515 73.004 30.2642L74.5232 28.9635ZM73.1085 27.5647C68.9398 24.3044 63.6886 22.7211 58.399 23.1279L58.5524 25.122C63.3457 24.7533 68.1023 26.1884 71.8764 29.1401L73.1085 27.5647ZM58.4757 23.1249H46.8923V25.1249H58.4757V23.1249ZM46.9117 23.1251C44.4594 23.0774 42.1484 21.9659 40.5922 20.0806L39.0498 21.3538C40.9797 23.6919 43.8413 25.0658 46.8729 25.1247L46.9117 23.1251ZM40.6297 20.129L36.885 14.981L35.2676 16.1575L39.0123 21.3055L40.6297 20.129ZM36.8555 14.9424C34.8961 12.507 31.9128 11.1118 28.7777 11.1601L28.8085 13.1598C31.3306 13.121 33.7263 14.2436 35.2972 16.1961L36.8555 14.9424ZM28.7931 11.1599H20.754V13.1599H28.7931V11.1599ZM20.754 11.1599C13.34 11.1599 8.06825 13.3322 4.6871 17.5333C1.34248 21.689 3.15905e-06 27.6482 3.15905e-06 34.8998H2C2 27.8324 3.32003 22.4217 6.24517 18.7873C9.13378 15.1981 13.739 13.1599 20.754 13.1599V11.1599ZM3.15905e-06 34.8998V45.8407H2V34.8998H3.15905e-06ZM3.27826e-06 45.8403C-1.01328e-06 45.8519 -1.01328e-06 45.8635 3.27826e-06 45.875L2 45.8743C2 45.8632 2 45.8521 2 45.8411L3.27826e-06 45.8403ZM3.15905e-06 45.8747V50.3779H2V45.8747H3.15905e-06ZM5.87702e-05 50.3674C-2.28286e-05 50.3751 -1.93715e-05 50.3829 6.90222e-05 50.3906L1.99994 50.3677C2.00002 50.3747 2.00002 50.3816 1.99995 50.3885L5.87702e-05 50.3674Z" fill="url(#paint1_linear_133_2182)" mask="url(#path-3-outside-1_133_2182)"/>
</g>
<g filter="url(#filter2_bd_133_2182)">
<path d="M59.1706 72.0817H20.2809C18.5164 72.0817 17.0859 70.6622 17.0859 68.9111C17.0859 67.16 18.5164 65.7405 20.2809 65.7405H59.4798C60.4314 65.7512 61.3224 66.2059 61.8847 66.9678C62.3735 67.5348 62.62 68.2687 62.5718 69.0134C62.545 69.8606 62.1776 70.6619 61.5514 71.2384C60.9253 71.8149 60.0927 72.1186 59.2393 72.0817H59.1706Z" fill="url(#paint2_linear_133_2182)"/>
<path d="M61.7237 67.0866L61.7282 67.0927L61.7332 67.0984C62.1879 67.6258 62.417 68.3083 62.3722 69.0004L62.3721 69.0004L62.3719 69.0071C62.3468 69.8003 62.0028 70.5509 61.416 71.0912C60.8291 71.6316 60.0484 71.9165 59.248 71.8819L59.248 71.8817H59.2393H59.1706H20.2809C18.6254 71.8817 17.2859 70.5503 17.2859 68.9111C17.2859 67.2719 18.6254 65.9405 20.2809 65.9405H59.4787C60.3675 65.9508 61.1991 66.3757 61.7237 67.0866Z" stroke="url(#paint3_linear_133_2182)" stroke-width="0.4"/>
</g>
<defs>
<filter id="filter0_f_133_2182" x="23.0703" y="0.977448" width="77.1528" height="80.1326" filterUnits="userSpaceOnUse" color-interpolation-filters="sRGB">
<feFlood flood-opacity="0" result="BackgroundImageFix"/>
<feBlend mode="normal" in="SourceGraphic" in2="BackgroundImageFix" result="shape"/>
<feGaussianBlur stdDeviation="7.5" result="effect1_foregroundBlur_133_2182"/>
</filter>
<filter id="filter1_b_133_2182" x="-15" y="-3.84116" width="109.279" height="108.841" filterUnits="userSpaceOnUse" color-interpolation-filters="sRGB">
<feFlood flood-opacity="0" result="BackgroundImageFix"/>
<feGaussianBlur in="BackgroundImage" stdDeviation="7.5"/>
<feComposite in2="SourceAlpha" operator="in" result="effect1_backgroundBlur_133_2182"/>
<feBlend mode="normal" in="SourceGraphic" in2="effect1_backgroundBlur_133_2182" result="shape"/>
</filter>
<filter id="filter2_bd_133_2182" x="2.08594" y="50.7405" width="75.4917" height="36.3443" filterUnits="userSpaceOnUse" color-interpolation-filters="sRGB">
<feFlood flood-opacity="0" result="BackgroundImageFix"/>
<feGaussianBlur in="BackgroundImage" stdDeviation="7.5"/>
<feComposite in2="SourceAlpha" operator="in" result="effect1_backgroundBlur_133_2182"/>
<feColorMatrix in="SourceAlpha" type="matrix" values="0 0 0 0 0 0 0 0 0 0 0 0 0 0 0 0 0 0 127 0" result="hardAlpha"/>
<feOffset dx="5" dy="5"/>
<feGaussianBlur stdDeviation="5"/>
<feColorMatrix type="matrix" values="0 0 0 0 0.976471 0 0 0 0 0.435294 0 0 0 0 0.352941 0 0 0 0.5 0"/>
<feBlend mode="normal" in2="effect1_backgroundBlur_133_2182" result="effect2_dropShadow_133_2182"/>
<feBlend mode="normal" in="SourceGraphic" in2="effect2_dropShadow_133_2182" result="shape"/>
</filter>
<linearGradient id="paint0_linear_133_2182" x1="42.671" y1="20.2994" x2="68.355" y2="112.694" gradientUnits="userSpaceOnUse">
<stop stop-color="#FFA78F"/>
<stop offset="1" stop-color="#F23E2C"/>
</linearGradient>
<linearGradient id="paint1_linear_133_2182" x1="13.3016" y1="21.1109" x2="62.2586" y2="82.091" gradientUnits="userSpaceOnUse">
<stop stop-color="white" stop-opacity="0.25"/>
<stop offset="1" stop-color="white" stop-opacity="0"/>
</linearGradient>
<linearGradient id="paint2_linear_133_2182" x1="59.3524" y1="66.8861" x2="11.254" y2="78.1311" gradientUnits="userSpaceOnUse">
<stop stop-color="white"/>
<stop offset="1" stop-color="white" stop-opacity="0.2"/>
</linearGradient>
<linearGradient id="paint3_linear_133_2182" x1="24.3275" y1="66.4796" x2="25.2481" y2="74.6557" gradientUnits="userSpaceOnUse">
<stop stop-color="white" stop-opacity="0.25"/>
<stop offset="1" stop-color="white" stop-opacity="0"/>
</linearGradient>
</defs>
</svg>
