<svg width="25" height="24" viewBox="0 0 25 24" fill="none" xmlns="http://www.w3.org/2000/svg">
<path d="M21.9999 12.2182C21.9999 11.5792 21.9433 10.9726 21.8462 10.3821H12.7061V14.0301H17.9394C17.7048 15.2272 17.0173 16.2383 15.9981 16.9258V19.3524H19.1204C20.9484 17.6619 21.9999 15.1706 21.9999 12.2182Z" fill="#4285F4"/>
<path d="M12.7059 21.7061C15.3266 21.7061 17.5187 20.8326 19.1202 19.3523L15.998 16.9257C15.1244 17.5081 14.0163 17.864 12.7059 17.864C10.1742 17.864 8.03067 16.1573 7.26225 13.8521H4.04297V16.3514C5.63643 19.5222 8.91234 21.7061 12.7059 21.7061Z" fill="#34A853"/>
<path d="M7.26223 13.8522C7.06001 13.2698 6.95486 12.647 6.95486 11.9999C6.95486 11.3528 7.0681 10.73 7.26223 10.1476V7.64819H4.04295C3.37968 8.95855 2.99951 10.4307 2.99951 11.9999C2.99951 13.5691 3.37968 15.0412 4.04295 16.3516L7.26223 13.8522Z" fill="#FBBC05"/>
<path d="M12.7059 6.13556C14.1376 6.13556 15.4156 6.62897 16.4267 7.59152L19.193 4.8252C17.5187 3.25601 15.3266 2.29346 12.7059 2.29346C8.91234 2.29346 5.63643 4.47739 4.04297 7.64814L7.26225 10.1475C8.03067 7.84227 10.1742 6.13556 12.7059 6.13556Z" fill="#EA4335"/>
</svg>
