<svg width="97" height="96" viewBox="0 0 97 96" fill="none" xmlns="http://www.w3.org/2000/svg">
<path fill-rule="evenodd" clip-rule="evenodd" d="M36.9551 95.9816L70.6597 95.9302C70.7044 95.9301 70.749 95.93 70.7936 95.9297C84.6351 95.8988 95.9349 86.2442 96.0399 74.3547L96.4608 26.7L96.4598 26.6991L96.4964 22.5516C96.6065 10.0804 84.8555 -0.0223658 70.3341 -0.000207761L67.4615 0.00417551L67.4612 0.0038934L25.9892 0.067177C25.9457 0.0672434 25.9022 0.0674053 25.8587 0.0676625C12.0157 0.0970663 0.714099 9.75218 0.609083 21.6427L0.266015 60.4867C0.265415 60.5546 0.265161 60.6225 0.265252 60.6904L0.152599 73.4458C0.0424557 85.917 11.7935 96.0197 26.3149 95.9976L36.8472 95.9815C36.8831 95.9816 36.9191 95.9817 36.9551 95.9816Z" fill="white"/>
<path d="M20.496 52.344C20.496 66.936 31.504 75.96 43.792 75.96C48.016 75.96 52.112 74.872 55.632 72.888L61.2 79.032L67.024 74.04L61.584 68.024C65.04 64.056 67.152 58.744 67.152 52.344C67.152 37.688 56.144 28.664 43.792 28.664C31.504 28.664 20.496 37.688 20.496 52.344ZM29.648 52.28C29.648 42.04 36.816 37.176 43.792 37.176C50.832 37.176 58 42.04 58 52.28C58 55.992 57.04 59 55.504 61.304L48.4 53.368L42.512 58.424L49.616 66.232C47.824 67 45.776 67.384 43.792 67.384C36.816 67.384 29.648 62.52 29.648 52.28Z" fill="url(#paint0_linear_33_140)"/>
<path d="M64.0011 30.288C65.6811 30.288 66.9771 29.64 67.6971 28.464V30H70.5531V22.872C70.5531 19.8 68.6811 18.456 65.6091 18.456C62.4171 18.456 60.4011 20.16 60.3051 22.728H63.2571V22.56C63.3291 21.552 64.0491 20.784 65.5851 20.784C67.1211 20.784 67.7211 21.408 67.7211 22.08V22.2C67.6491 22.824 66.5931 22.92 64.5051 23.328C61.9611 23.88 60.0651 24.456 60.0651 27C60.0651 28.968 61.5771 30.288 64.0011 30.288ZM64.6971 28.152C63.6651 28.152 63.0651 27.624 63.0651 26.856C63.0651 25.848 63.9291 25.464 65.0811 25.176C66.0171 24.936 67.0731 24.744 67.7211 24.36V25.32C67.6491 27.432 66.1131 28.152 64.6971 28.152ZM72.592 17.016H75.688V14.112H72.592V17.016ZM72.64 30H75.64V18.672H72.64V30Z" fill="#882DFF"/>
<defs>
<linearGradient id="paint0_linear_33_140" x1="44" y1="26" x2="44" y2="75" gradientUnits="userSpaceOnUse">
<stop stop-color="#C79DFF"/>
<stop offset="1" stop-color="#892FFF"/>
</linearGradient>
</defs>
</svg>
