<svg width="106" height="97" viewBox="0 0 106 97" fill="none" xmlns="http://www.w3.org/2000/svg">
<path fill-rule="evenodd" clip-rule="evenodd" d="M49.9262 81.2777L67.2158 75.2017C67.2602 75.1861 67.3045 75.1703 67.3487 75.1544C75.8301 72.1346 80.325 62.7224 77.3926 54.0945L65.6157 19.4437L65.6154 19.4435L64.5903 16.4276C61.5083 7.35947 51.7215 2.5607 42.7863 5.70074L41.0186 6.32196L41.0181 6.32167L15.4997 15.2894C15.4563 15.3047 15.4131 15.3201 15.3699 15.3356C6.88653 18.3542 2.39014 27.7677 5.32289 36.3966L14.5726 63.6118C14.5835 63.6437 14.5944 63.6756 14.6054 63.7074L18.1252 74.0636C21.2072 83.1317 30.994 87.9304 39.9292 84.7904L49.7987 81.322C49.8412 81.3074 49.8837 81.2926 49.9262 81.2777Z" fill="url(#paint0_linear_27_95)"/>
<g opacity="0.5" filter="url(#filter0_f_27_95)">
<path d="M57.2103 63.1633L50.9562 65.3485C45.5854 67.2251 39.684 66.7103 34.7402 63.9339C30.5003 61.5527 27.2865 57.6871 25.7082 53.0702L21.042 39.4197C19.2656 34.2231 21.8044 28.6213 26.7132 26.9061L42.469 21.401C47.6154 19.6028 53.323 22.5578 55.1853 28.0058L62.9068 50.594C64.6832 55.7906 62.1389 61.4412 57.2103 63.1633Z" fill="#9C4BF2"/>
</g>
<g filter="url(#filter1_b_27_95)">
<path d="M48.6421 19.6055L76.4185 19.6055L95.9995 40.9001L95.9995 78.8493C95.9995 88.3222 88.4807 95.9998 79.2037 95.9998H49.4276C39.7018 95.9998 31.7715 87.9402 31.7715 78.009L31.7715 36.8324C31.7715 27.3595 39.3277 19.6055 48.6421 19.6055Z" fill="#CCA5FF"/>
<path d="M76.7866 19.267C76.6919 19.1641 76.5584 19.1055 76.4185 19.1055L48.6421 19.1055C39.0411 19.1055 31.2715 27.094 31.2715 36.8324L31.2715 78.009C31.2715 88.2079 39.4172 96.4998 49.4276 96.4998H79.2037C88.7666 96.4998 96.4995 88.5885 96.4995 78.8493L96.4995 40.9001C96.4995 40.7747 96.4524 40.6539 96.3676 40.5617L76.7866 19.267Z" stroke="url(#paint1_linear_27_95)" stroke-linecap="round" stroke-linejoin="round"/>
</g>
<g filter="url(#filter2_bd_27_95)">
<path fill-rule="evenodd" clip-rule="evenodd" d="M70.872 64.4615H64.9V70.5596C64.9 72.0048 63.7609 73.1681 62.3455 73.1681C60.9302 73.1681 59.7565 72.0048 59.7565 70.5596V64.4615H53.819C52.4037 64.4615 51.23 63.2982 51.23 61.853C51.23 60.3725 52.4037 59.2093 53.819 59.2093H59.7565V53.1111C59.7565 51.6659 60.9302 50.5027 62.3455 50.5027C63.7609 50.5027 64.9 51.6659 64.9 53.1111V59.2093H70.872C72.2874 59.2093 73.4611 60.3725 73.4611 61.853C73.4611 63.2982 72.2874 64.4615 70.872 64.4615Z" fill="url(#paint2_linear_27_95)"/>
<path d="M64.9 64.2615H64.7V64.4615V70.5596C64.7 71.8983 63.6465 72.9681 62.3455 72.9681C61.0411 72.9681 59.9565 71.8948 59.9565 70.5596V64.4615V64.2615H59.7565H53.819C52.5146 64.2615 51.43 63.1882 51.43 61.853C51.43 60.4808 52.5163 59.4093 53.819 59.4093H59.7565H59.9565V59.2093V53.1111C59.9565 51.7759 61.0411 50.7027 62.3455 50.7027C63.6465 50.7027 64.7 51.7724 64.7 53.1111V59.2093V59.4093H64.9H70.872C72.1747 59.4093 73.2611 60.4808 73.2611 61.853C73.2611 63.1882 72.1765 64.2615 70.872 64.2615H64.9Z" stroke="url(#paint3_linear_27_95)" stroke-width="0.4"/>
</g>
<g filter="url(#filter3_bd_27_95)">
<path d="M79.8829 43.9495C82.4902 43.9763 86.1149 43.9877 89.1898 43.9763C90.7646 43.9725 91.5652 42.0511 90.4729 40.8938C86.5227 36.6997 79.4565 29.194 75.4128 24.9006C74.2943 23.7127 72.3379 24.5301 72.3379 26.1764V36.2452C72.3379 40.4698 75.7457 43.9495 79.8829 43.9495Z" fill="url(#paint4_linear_27_95)"/>
<path d="M79.885 43.7495H79.8829C75.8601 43.7495 72.5379 40.3633 72.5379 36.2452V26.1764C72.5379 24.6991 74.281 23.9903 75.2671 25.0377L75.2672 25.0377C77.2909 27.1864 80.0734 30.1415 82.8431 33.0831C85.6057 36.017 88.3555 38.9374 90.3273 41.0309L90.3274 41.031C91.3047 42.0666 90.5814 43.7729 89.1893 43.7763H89.1891C86.115 43.7877 82.4912 43.7763 79.885 43.7495Z" stroke="url(#paint5_linear_27_95)" stroke-width="0.4"/>
</g>
<defs>
<filter id="filter0_f_27_95" x="1.4751" y="1.87427" width="80.9976" height="83.5867" filterUnits="userSpaceOnUse" color-interpolation-filters="sRGB">
<feFlood flood-opacity="0" result="BackgroundImageFix"/>
<feBlend mode="normal" in="SourceGraphic" in2="BackgroundImageFix" result="shape"/>
<feGaussianBlur stdDeviation="9.5" result="effect1_foregroundBlur_27_95"/>
</filter>
<filter id="filter1_b_27_95" x="6.77148" y="-5.39453" width="114.228" height="126.394" filterUnits="userSpaceOnUse" color-interpolation-filters="sRGB">
<feFlood flood-opacity="0" result="BackgroundImageFix"/>
<feGaussianBlur in="BackgroundImage" stdDeviation="12"/>
<feComposite in2="SourceAlpha" operator="in" result="effect1_backgroundBlur_27_95"/>
<feBlend mode="normal" in="SourceGraphic" in2="effect1_backgroundBlur_27_95" result="shape"/>
</filter>
<filter id="filter2_bd_27_95" x="36.23" y="35.5027" width="52.231" height="52.6653" filterUnits="userSpaceOnUse" color-interpolation-filters="sRGB">
<feFlood flood-opacity="0" result="BackgroundImageFix"/>
<feGaussianBlur in="BackgroundImage" stdDeviation="7.5"/>
<feComposite in2="SourceAlpha" operator="in" result="effect1_backgroundBlur_27_95"/>
<feColorMatrix in="SourceAlpha" type="matrix" values="0 0 0 0 0 0 0 0 0 0 0 0 0 0 0 0 0 0 127 0" result="hardAlpha"/>
<feOffset dx="5" dy="5"/>
<feGaussianBlur stdDeviation="5"/>
<feColorMatrix type="matrix" values="0 0 0 0 0.611765 0 0 0 0 0.294118 0 0 0 0 0.94902 0 0 0 0.5 0"/>
<feBlend mode="normal" in2="effect1_backgroundBlur_27_95" result="effect2_dropShadow_27_95"/>
<feBlend mode="normal" in="SourceGraphic" in2="effect2_dropShadow_27_95" result="shape"/>
</filter>
<filter id="filter3_bd_27_95" x="57.3379" y="9.3374" width="48.6387" height="49.6433" filterUnits="userSpaceOnUse" color-interpolation-filters="sRGB">
<feFlood flood-opacity="0" result="BackgroundImageFix"/>
<feGaussianBlur in="BackgroundImage" stdDeviation="7.5"/>
<feComposite in2="SourceAlpha" operator="in" result="effect1_backgroundBlur_27_95"/>
<feColorMatrix in="SourceAlpha" type="matrix" values="0 0 0 0 0 0 0 0 0 0 0 0 0 0 0 0 0 0 127 0" result="hardAlpha"/>
<feOffset dx="5" dy="5"/>
<feGaussianBlur stdDeviation="5"/>
<feColorMatrix type="matrix" values="0 0 0 0 0.611765 0 0 0 0 0.294118 0 0 0 0 0.94902 0 0 0 1 0"/>
<feBlend mode="normal" in2="effect1_backgroundBlur_27_95" result="effect2_dropShadow_27_95"/>
<feBlend mode="normal" in="SourceGraphic" in2="effect2_dropShadow_27_95" result="shape"/>
</filter>
<linearGradient id="paint0_linear_27_95" x1="32.8593" y1="9.16925" x2="57.1763" y2="78.7644" gradientUnits="userSpaceOnUse">
<stop stop-color="#C89DFF"/>
<stop offset="1" stop-color="#882DFF"/>
</linearGradient>
<linearGradient id="paint1_linear_27_95" x1="41.9955" y1="28.5055" x2="91.8055" y2="80.3717" gradientUnits="userSpaceOnUse">
<stop stop-color="white" stop-opacity="0.25"/>
<stop offset="1" stop-color="white" stop-opacity="0"/>
</linearGradient>
<linearGradient id="paint2_linear_27_95" x1="71.8849" y1="54.5956" x2="47.1206" y2="55.3876" gradientUnits="userSpaceOnUse">
<stop stop-color="white"/>
<stop offset="1" stop-color="white" stop-opacity="0.2"/>
</linearGradient>
<linearGradient id="paint3_linear_27_95" x1="54.7688" y1="53.1432" x2="69.2834" y2="70.7754" gradientUnits="userSpaceOnUse">
<stop stop-color="white" stop-opacity="0.25"/>
<stop offset="1" stop-color="white" stop-opacity="0"/>
</linearGradient>
<linearGradient id="paint4_linear_27_95" x1="89.6552" y1="27.8846" x2="68.8912" y2="28.527" gradientUnits="userSpaceOnUse">
<stop stop-color="white"/>
<stop offset="1" stop-color="white" stop-opacity="0.2"/>
</linearGradient>
<linearGradient id="paint5_linear_27_95" x1="75.3049" y1="26.6259" x2="87.9578" y2="41.4954" gradientUnits="userSpaceOnUse">
<stop stop-color="white" stop-opacity="0.25"/>
<stop offset="1" stop-color="white" stop-opacity="0"/>
</linearGradient>
</defs>
</svg>
