<svg width="114" height="99" viewBox="0 0 114 99" fill="none" xmlns="http://www.w3.org/2000/svg">
<path fill-rule="evenodd" clip-rule="evenodd" d="M55.7593 52.7059C59.0928 40.265 71.7731 32.8533 84.0816 36.1513C89.9923 37.7351 95.0251 41.6273 98.0726 46.9717C101.12 52.3161 101.933 58.6749 100.332 64.6492C96.9986 77.0901 84.3183 84.5018 72.0098 81.2038C59.7014 77.9057 52.4258 65.1468 55.7593 52.7059ZM95.1014 82.6963L100.303 89.8326L100.419 89.8635C101.398 91.5806 100.808 93.7813 99.1015 94.7788C97.395 95.7762 95.2177 95.1929 94.2386 93.4757L90.4219 85.6869C90.0417 85.0228 89.9399 84.2319 90.139 83.4889C90.3381 82.7458 90.8217 82.1117 91.483 81.7267C92.7546 80.9984 94.3644 81.4297 95.1014 82.6963Z" fill="url(#paint0_linear_202_2206)"/>
<g filter="url(#filter0_f_202_2206)">
<path d="M81.335 46.4055C74.6288 44.6086 67.72 48.6468 65.9038 55.4252C64.0875 62.2035 68.0516 69.1551 74.7578 70.952C81.464 72.749 88.3728 68.7107 90.189 61.9324C91.0612 58.6773 90.6184 55.2128 88.9579 52.3009C87.2975 49.3891 84.5554 47.2684 81.335 46.4055Z" fill="#0062FF" fill-opacity="0.5"/>
</g>
<g filter="url(#filter1_b_202_2206)">
<g filter="url(#filter2_b_202_2206)">
<mask id="path-3-outside-1_202_2206" maskUnits="userSpaceOnUse" x="-1.95448" y="-1.22474" width="101.654" height="101.654" fill="black">
<rect fill="white" x="-1.95448" y="-1.22474" width="101.654" height="101.654"/>
<path fill-rule="evenodd" clip-rule="evenodd" d="M86.5135 33.6006C81.5412 15.0435 62.6269 3.98799 44.2673 8.90743C35.4507 11.2698 27.9438 17.0755 23.398 25.0473C18.8521 33.0191 17.6398 42.504 20.0276 51.4155C25 69.9726 43.9142 81.0281 62.2738 76.1087C80.6334 71.1892 91.4859 52.1577 86.5135 33.6006ZM27.8314 78.3369L20.0721 88.9817L19.9002 89.0277C18.4397 91.589 19.3192 94.8715 21.8647 96.3594C24.4103 97.8473 27.6578 96.9771 29.1184 94.4158L34.8114 82.7978C35.3785 81.8073 35.5304 80.6275 35.2334 79.5191C34.9364 78.4108 34.215 77.465 33.2287 76.8907C31.332 75.8043 28.9307 76.4477 27.8314 78.3369Z"/>
</mask>
<path fill-rule="evenodd" clip-rule="evenodd" d="M86.5135 33.6006C81.5412 15.0435 62.6269 3.98799 44.2673 8.90743C35.4507 11.2698 27.9438 17.0755 23.398 25.0473C18.8521 33.0191 17.6398 42.504 20.0276 51.4155C25 69.9726 43.9142 81.0281 62.2738 76.1087C80.6334 71.1892 91.4859 52.1577 86.5135 33.6006ZM27.8314 78.3369L20.0721 88.9817L19.9002 89.0277C18.4397 91.589 19.3192 94.8715 21.8647 96.3594C24.4103 97.8473 27.6578 96.9771 29.1184 94.4158L34.8114 82.7978C35.3785 81.8073 35.5304 80.6275 35.2334 79.5191C34.9364 78.4108 34.215 77.465 33.2287 76.8907C31.332 75.8043 28.9307 76.4477 27.8314 78.3369Z" fill="#3EA0FE" fill-opacity="0.35"/>
<path d="M23.398 25.0473L22.5293 24.552L23.398 25.0473ZM20.0721 88.9817L20.8802 89.5707C20.7456 89.7554 20.5517 89.8884 20.3309 89.9476L20.0721 88.9817ZM27.8314 78.3369L28.6957 78.8399C28.6785 78.8695 28.6597 78.8982 28.6395 78.926L27.8314 78.3369ZM19.9002 89.0277L19.0315 88.5324C19.1638 88.3004 19.3834 88.1309 19.6414 88.0618L19.9002 89.0277ZM21.8647 96.3594L21.3601 97.2228L21.3601 97.2228L21.8647 96.3594ZM29.1184 94.4158L30.0164 94.8558C30.0072 94.8746 29.9974 94.893 29.9871 94.9112L29.1184 94.4158ZM34.8114 82.7978L33.9135 82.3577C33.9229 82.3385 33.933 82.3195 33.9436 82.3009L34.8114 82.7978ZM33.2287 76.8907L33.7257 76.023L33.7318 76.0265L33.2287 76.8907ZM44.0085 7.9415C62.9112 2.87652 82.3668 14.261 87.4794 33.3418L85.5476 33.8594C80.7155 15.826 62.3425 5.09946 44.5261 9.87335L44.0085 7.9415ZM22.5293 24.552C27.2066 16.3496 34.9324 10.3734 44.0085 7.9415L44.5261 9.87335C35.9691 12.1662 28.681 17.8015 24.2666 25.5427L22.5293 24.552ZM19.0617 51.6743C16.6061 42.51 17.8522 32.7539 22.5293 24.552L24.2666 25.5427C19.8521 33.2843 18.6735 42.4981 20.9935 51.1566L19.0617 51.6743ZM62.5326 77.0746C43.6299 82.1396 24.1744 70.7551 19.0617 51.6743L20.9935 51.1566C25.8256 69.1901 44.1986 79.9166 62.015 75.1427L62.5326 77.0746ZM87.4794 33.3418C92.5921 52.4226 81.4354 72.0096 62.5326 77.0746L62.015 75.1427C79.8314 70.3688 90.3796 51.8928 85.5476 33.8594L87.4794 33.3418ZM19.264 88.3926L27.0233 77.7479L28.6395 78.926L20.8802 89.5707L19.264 88.3926ZM19.6414 88.0618L19.8133 88.0157L20.3309 89.9476L20.159 89.9937L19.6414 88.0618ZM21.3601 97.2228C18.3414 95.4583 17.2995 91.5698 19.0315 88.5324L20.7689 89.5231C19.5799 91.6083 20.2971 94.2848 22.3694 95.4961L21.3601 97.2228ZM29.9871 94.9112C28.2509 97.9559 24.3861 98.9914 21.3601 97.2228L22.3694 95.4961C24.4345 96.7031 27.0648 95.9983 28.2497 93.9204L29.9871 94.9112ZM35.7094 83.2378L30.0164 94.8558L28.2204 93.9758L33.9135 82.3577L35.7094 83.2378ZM36.1993 79.2603C36.5642 80.6221 36.3783 82.0737 35.6793 83.2946L33.9436 82.3009C34.3788 81.5408 34.4965 80.6329 34.2675 79.7779L36.1993 79.2603ZM33.7318 76.0265C34.9477 76.7344 35.8344 77.8985 36.1993 79.2603L34.2675 79.7779C34.0384 78.923 33.4824 78.1956 32.7255 77.7549L33.7318 76.0265ZM26.9671 77.834C28.3428 75.4697 31.3521 74.6633 33.7257 76.023L32.7316 77.7584C31.3119 76.9452 29.5186 77.4257 28.6957 78.8399L26.9671 77.834Z" fill="url(#paint1_linear_202_2206)" mask="url(#path-3-outside-1_202_2206)"/>
</g>
</g>
<defs>
<filter id="filter0_f_202_2206" x="50.4634" y="30.9785" width="55.1631" height="55.4006" filterUnits="userSpaceOnUse" color-interpolation-filters="sRGB">
<feFlood flood-opacity="0" result="BackgroundImageFix"/>
<feBlend mode="normal" in="SourceGraphic" in2="BackgroundImageFix" result="shape"/>
<feGaussianBlur stdDeviation="7.5" result="effect1_foregroundBlur_202_2206"/>
</filter>
<filter id="filter1_b_202_2206" x="-6.17017" y="-17.2623" width="118.89" height="139.348" filterUnits="userSpaceOnUse" color-interpolation-filters="sRGB">
<feFlood flood-opacity="0" result="BackgroundImageFix"/>
<feGaussianBlur in="BackgroundImage" stdDeviation="12"/>
<feComposite in2="SourceAlpha" operator="in" result="effect1_backgroundBlur_202_2206"/>
<feBlend mode="normal" in="SourceGraphic" in2="effect1_backgroundBlur_202_2206" result="shape"/>
</filter>
<filter id="filter2_b_202_2206" x="-6.17017" y="-17.2623" width="118.89" height="139.348" filterUnits="userSpaceOnUse" color-interpolation-filters="sRGB">
<feFlood flood-opacity="0" result="BackgroundImageFix"/>
<feGaussianBlur in="BackgroundImage" stdDeviation="12"/>
<feComposite in2="SourceAlpha" operator="in" result="effect1_backgroundBlur_202_2206"/>
<feBlend mode="normal" in="SourceGraphic" in2="effect1_backgroundBlur_202_2206" result="shape"/>
</filter>
<linearGradient id="paint0_linear_202_2206" x1="113.971" y1="44.1603" x2="44.5178" y2="75.205" gradientUnits="userSpaceOnUse">
<stop stop-color="#39AFFD"/>
<stop offset="1" stop-color="#477FFF"/>
</linearGradient>
<linearGradient id="paint1_linear_202_2206" x1="67.5915" y1="12.3363" x2="19.5115" y2="93.3382" gradientUnits="userSpaceOnUse">
<stop stop-color="white" stop-opacity="0.25"/>
<stop offset="1" stop-color="white" stop-opacity="0"/>
</linearGradient>
</defs>
</svg>
