<svg width="97" height="96" viewBox="0 0 97 96" fill="none" xmlns="http://www.w3.org/2000/svg">
<path d="M49.1016 62.1569C48.8048 62.3365 48.4689 62.4451 48.1214 62.4626L36.9248 63.0292C33.7469 63.1885 31.0133 62.8636 28.5646 62.0396C23.2067 60.2393 18.7105 56.4872 15.9073 51.469L6.67518 34.9562C5.6093 33.0506 5.84824 30.6168 7.26321 28.8985L19.94 13.5506C20.6881 12.6309 21.7351 11.9909 22.8793 11.7492L41.8529 7.68537C43.9751 7.22751 46.1184 8.20363 47.1805 10.1082L56.4194 26.6333C59.2209 31.6427 60.1469 37.5811 59.0294 43.355C58.5163 46.0037 57.447 48.6591 55.764 51.4735L49.8328 61.4108C49.6496 61.7208 49.3971 61.9749 49.1016 62.1569Z" fill="url(#paint0_linear_201_2198)"/>
<g filter="url(#filter0_f_201_2198)">
<path d="M44.1502 52.3183C43.9489 52.4401 43.7244 52.5199 43.4956 52.5442L36.1229 53.329C34.0303 53.5508 32.2467 53.4581 30.668 53.0481C27.2135 52.1524 24.3943 50.0253 22.7319 47.0552L17.2562 37.2821C16.624 36.1543 16.8674 34.6514 17.8576 33.5417L26.7278 23.6283C27.2517 23.0347 27.962 22.6011 28.722 22.4081L41.3261 19.1736C42.736 18.8097 44.1087 19.3251 44.7385 20.4524L50.2182 30.2328C51.8799 33.1975 52.2769 36.8056 51.3378 40.3926C50.9067 42.038 50.1102 43.7093 48.905 45.5022L44.6568 51.8319C44.5255 52.0293 44.3507 52.1951 44.1502 52.3183Z" fill="#1EA51F" fill-opacity="0.5"/>
</g>
<g filter="url(#filter1_b_201_2198)">
<mask id="path-3-outside-1_201_2198" maskUnits="userSpaceOnUse" x="22.7882" y="8.63444" width="76.222" height="89.0675" fill="black">
<rect fill="white" x="22.7882" y="8.63444" width="76.222" height="89.0675"/>
<path d="M55.4147 90.8666C54.9613 90.7911 54.5232 90.6077 54.1451 90.3201L41.9628 81.0544C38.5063 78.423 35.8994 75.682 33.9868 72.676C29.8 66.1014 28.0638 58.2679 29.1059 50.6156L32.5265 25.4279C32.9207 22.5208 35.1011 20.2158 37.9465 19.6851L63.4018 14.9777C64.9151 14.6855 66.5198 14.9453 67.9104 15.7022L91.0158 28.1963C93.6028 29.5904 95.0746 32.4848 94.6773 35.3876L91.2541 60.5939C90.2173 68.2357 86.4784 75.1874 80.7284 80.171C78.0902 82.4568 74.864 84.2602 70.8685 85.688L56.7726 90.7389C56.3348 90.8981 55.8687 90.9385 55.4147 90.8666Z"/>
</mask>
<path d="M55.4147 90.8666C54.9613 90.7911 54.5232 90.6077 54.1451 90.3201L41.9628 81.0544C38.5063 78.423 35.8994 75.682 33.9868 72.676C29.8 66.1014 28.0638 58.2679 29.1059 50.6156L32.5265 25.4279C32.9207 22.5208 35.1011 20.2158 37.9465 19.6851L63.4018 14.9777C64.9151 14.6855 66.5198 14.9453 67.9104 15.7022L91.0158 28.1963C93.6028 29.5904 95.0746 32.4848 94.6773 35.3876L91.2541 60.5939C90.2173 68.2357 86.4784 75.1874 80.7284 80.171C78.0902 82.4568 74.864 84.2602 70.8685 85.688L56.7726 90.7389C56.3348 90.8981 55.8687 90.9385 55.4147 90.8666Z" fill="#72DC60" fill-opacity="0.35"/>
<path d="M55.274 91.8567C55.8189 91.9475 56.3235 91.5778 56.4012 91.031C56.4789 90.4842 56.1002 89.9673 55.5554 89.8765L55.274 91.8567ZM54.1451 90.3201L54.734 89.5242L54.734 89.5242L54.1451 90.3201ZM41.9628 81.0544L41.3737 81.8501L41.374 81.8504L41.9628 81.0544ZM33.9868 72.676L34.8222 72.1483L34.822 72.1479L33.9868 72.676ZM29.1059 50.6156L30.0932 50.7743L30.0932 50.7739L29.1059 50.6156ZM32.5265 25.4279L33.5138 25.5861L33.5138 25.5859L32.5265 25.4279ZM37.9465 19.6851L37.745 18.6978L37.7435 18.698L37.9465 19.6851ZM63.4018 14.9777L63.6033 15.965L63.6109 15.9635L63.4018 14.9777ZM67.9104 15.7022L67.4523 16.5828L67.4548 16.5841L67.9104 15.7022ZM91.0158 28.1963L90.5602 29.0782L90.5615 29.0789L91.0158 28.1963ZM94.6773 35.3876L93.6901 35.2283L93.6899 35.2293L94.6773 35.3876ZM91.2541 60.5939L90.2667 60.4357L90.2667 60.4358L91.2541 60.5939ZM80.7284 80.171L81.3881 80.9383L81.3882 80.9382L80.7284 80.171ZM70.8685 85.688L70.5164 84.7412L70.5156 84.7415L70.8685 85.688ZM56.7726 90.7389L56.4197 89.7924L56.4153 89.794L56.7726 90.7389ZM55.5474 89.8752C55.0019 89.7889 54.5004 90.1628 54.4271 90.7104C54.3539 91.2579 54.7367 91.7718 55.2821 91.8581L55.5474 89.8752ZM55.5554 89.8765C55.2572 89.8268 54.9744 89.7071 54.734 89.5242L53.5563 91.116C54.072 91.5083 54.6654 91.7553 55.274 91.8567L55.5554 89.8765ZM54.734 89.5242L42.5517 80.2585L41.374 81.8504L53.5563 91.1161L54.734 89.5242ZM42.552 80.2587C39.1722 77.6858 36.6566 75.0314 34.8222 72.1483L33.1514 73.2038C35.1422 76.3326 37.8404 79.1603 41.3737 81.8501L42.552 80.2587ZM34.822 72.1479C30.7658 65.7784 29.0835 58.1887 30.0932 50.7743L28.1186 50.457C27.0442 58.3471 28.8341 66.4244 33.1516 73.2041L34.822 72.1479ZM30.0932 50.7739L33.5138 25.5861L31.5391 25.2696L28.1186 50.4574L30.0932 50.7739ZM33.5138 25.5859C33.8513 23.0972 35.7188 21.1255 38.1495 20.6721L37.7435 18.698C34.4835 19.3062 31.99 21.9444 31.5391 25.2698L33.5138 25.5859ZM38.148 20.6724L63.6033 15.965L63.2003 13.9903L37.745 18.6978L38.148 20.6724ZM63.6109 15.9635C64.894 15.7158 66.2632 15.9355 67.4523 16.5828L68.3686 14.8217C66.7765 13.955 64.9362 13.6552 63.1928 13.9918L63.6109 15.9635ZM67.4548 16.5841L90.5602 29.0782L91.4714 27.3144L68.3661 14.8204L67.4548 16.5841ZM90.5615 29.0789C92.7688 30.2684 94.0303 32.7433 93.6901 35.2283L95.6644 35.5469C96.119 32.2264 94.4368 28.9124 91.4701 27.3137L90.5615 29.0789ZM93.6899 35.2293L90.2667 60.4357L92.2414 60.7522L95.6646 35.5459L93.6899 35.2293ZM90.2667 60.4358C89.2621 67.8401 85.6394 74.5756 80.0686 79.4039L81.3882 80.9382C87.3173 75.7992 91.1724 68.6313 92.2414 60.7521L90.2667 60.4358ZM80.0687 79.4038C77.5383 81.5963 74.4228 83.3453 70.5164 84.7412L71.2205 86.6347C75.3052 85.1751 78.6422 83.3174 81.3881 80.9383L80.0687 79.4038ZM70.5156 84.7415L56.4197 89.7924L57.1255 91.6854L71.2213 86.6345L70.5156 84.7415ZM56.4153 89.794C56.137 89.8952 55.8396 89.9214 55.5474 89.8752L55.2821 91.8581C55.8978 91.9555 56.5327 91.901 57.1299 91.6838L56.4153 89.794Z" fill="url(#paint1_linear_201_2198)" mask="url(#path-3-outside-1_201_2198)"/>
</g>
<g filter="url(#filter2_bd_201_2198)">
<path d="M56.7535 61.2406C56.0468 61.1267 55.378 60.7458 54.9106 60.1138L48.8986 51.9759C47.9712 50.713 48.21 48.9535 49.4353 48.0416C50.6611 47.1259 52.4098 47.4057 53.3414 48.6655L57.6677 54.5183L71.7557 44.0113C72.9852 43.0963 74.7339 43.3761 75.6619 44.6353C76.593 45.8988 76.3536 47.6621 75.1288 48.5703L58.8167 60.7377C58.2017 61.1971 57.4602 61.3545 56.7535 61.2406Z" fill="url(#paint2_linear_201_2198)"/>
<path d="M57.7282 54.5994L71.8161 44.0925C73.0019 43.21 74.6878 43.4801 75.5823 44.6939C76.4806 45.9129 76.2493 47.6134 75.0686 48.489L75.0684 48.4892L58.7563 60.6566L58.7562 60.6566C58.1631 61.0997 57.4485 61.2514 56.767 61.1415C56.0853 61.0316 55.4407 60.6644 54.9901 60.055C54.9901 60.055 54.9901 60.055 54.9901 60.055L48.9782 51.9175C48.0836 50.6992 48.3142 49.0021 49.4957 48.1228L49.4958 48.1226C50.6778 47.2398 52.3637 47.5095 53.262 48.7243L57.5882 54.577L57.6486 54.6587L57.7282 54.5994Z" stroke="url(#paint3_linear_201_2198)" stroke-opacity="0.5" stroke-width="0.2"/>
</g>
<defs>
<filter id="filter0_f_201_2198" x="0.907471" y="3.05815" width="66.9285" height="66.388" filterUnits="userSpaceOnUse" color-interpolation-filters="sRGB">
<feFlood flood-opacity="0" result="BackgroundImageFix"/>
<feBlend mode="normal" in="SourceGraphic" in2="BackgroundImageFix" result="shape"/>
<feGaussianBlur stdDeviation="8" result="effect1_foregroundBlur_201_2198"/>
</filter>
<filter id="filter1_b_201_2198" x="3.81421" y="-10.1431" width="115.924" height="126.048" filterUnits="userSpaceOnUse" color-interpolation-filters="sRGB">
<feFlood flood-opacity="0" result="BackgroundImageFix"/>
<feGaussianBlur in="BackgroundImage" stdDeviation="12"/>
<feComposite in2="SourceAlpha" operator="in" result="effect1_backgroundBlur_201_2198"/>
<feBlend mode="normal" in="SourceGraphic" in2="effect1_backgroundBlur_201_2198" result="shape"/>
</filter>
<filter id="filter2_bd_201_2198" x="33.3337" y="28.473" width="57.8958" height="47.8032" filterUnits="userSpaceOnUse" color-interpolation-filters="sRGB">
<feFlood flood-opacity="0" result="BackgroundImageFix"/>
<feGaussianBlur in="BackgroundImage" stdDeviation="7.5"/>
<feComposite in2="SourceAlpha" operator="in" result="effect1_backgroundBlur_201_2198"/>
<feColorMatrix in="SourceAlpha" type="matrix" values="0 0 0 0 0 0 0 0 0 0 0 0 0 0 0 0 0 0 127 0" result="hardAlpha"/>
<feOffset dx="5" dy="5"/>
<feGaussianBlur stdDeviation="5"/>
<feColorMatrix type="matrix" values="0 0 0 0 0.454902 0 0 0 0 0.870588 0 0 0 0 0.376471 0 0 0 0.5 0"/>
<feBlend mode="normal" in2="effect1_backgroundBlur_201_2198" result="effect2_dropShadow_201_2198"/>
<feBlend mode="normal" in="SourceGraphic" in2="effect2_dropShadow_201_2198" result="shape"/>
</filter>
<linearGradient id="paint0_linear_201_2198" x1="41.7475" y1="1.62293e-06" x2="26.0529" y2="55.8654" gradientUnits="userSpaceOnUse">
<stop stop-color="#9BF763"/>
<stop offset="1" stop-color="#26AB5B"/>
</linearGradient>
<linearGradient id="paint1_linear_201_2198" x1="43.4025" y1="20.2753" x2="85.4956" y2="78.9966" gradientUnits="userSpaceOnUse">
<stop stop-color="white" stop-opacity="0.25"/>
<stop offset="1" stop-color="white" stop-opacity="0"/>
</linearGradient>
<linearGradient id="paint2_linear_201_2198" x1="74.1835" y1="47.2837" x2="44.1407" y2="44.3385" gradientUnits="userSpaceOnUse">
<stop stop-color="white"/>
<stop offset="1" stop-color="white" stop-opacity="0.2"/>
</linearGradient>
<linearGradient id="paint3_linear_201_2198" x1="51.7576" y1="46.7352" x2="74.5408" y2="50.1456" gradientUnits="userSpaceOnUse">
<stop stop-color="white"/>
<stop offset="1" stop-color="white" stop-opacity="0"/>
</linearGradient>
</defs>
</svg>
